<?xml version="1.0" standalone="no"?>
<!DOCTYPE svg PUBLIC "-//W3C//DTD SVG 20010904//EN"
 "http://www.w3.org/TR/2001/REC-SVG-20010904/DTD/svg10.dtd">
<svg version="1.0" xmlns="http://www.w3.org/2000/svg"
 width="1280.000000pt" height="1280.000000pt" viewBox="0 0 1280.000000 1280.000000"
 preserveAspectRatio="xMidYMid meet">
<metadata>
Created by potrace 1.14, written by Peter Selinger 2001-2017
</metadata>
<g transform="translate(0.000000,1280.000000) scale(0.100000,-0.100000)"
fill="#000000" stroke="none">
<path d="M6040 10384 c-63 -8 -126 -20 -140 -28 -14 -7 -50 -19 -82 -25 -31
-7 -59 -18 -61 -25 -3 -7 -23 -16 -45 -19 -22 -4 -45 -13 -51 -21 -7 -8 -26
-18 -42 -21 -16 -4 -29 -11 -29 -16 0 -5 -8 -9 -17 -9 -10 0 -27 -7 -37 -15
-11 -8 -27 -15 -37 -15 -9 0 -39 -15 -67 -34 -27 -19 -89 -53 -138 -76 -49
-23 -103 -49 -120 -58 -17 -8 -37 -13 -45 -10 -8 3 -32 -4 -54 -15 -25 -13
-63 -21 -105 -22 -106 -3 -170 -22 -140 -40 21 -13 10 -35 -18 -35 -18 0 -39
-11 -58 -29 -40 -39 -114 -93 -228 -166 -52 -33 -102 -73 -111 -88 -10 -16
-35 -45 -58 -65 -71 -65 -117 -115 -117 -127 0 -7 -27 -37 -59 -68 -58 -55
-136 -165 -125 -176 3 -3 18 9 34 28 19 21 35 31 45 27 20 -7 4 -42 -23 -50
-9 -3 -37 -43 -62 -88 -25 -45 -60 -102 -79 -127 -18 -24 -34 -53 -36 -65 -1
-12 -9 -37 -18 -56 -53 -117 -95 -348 -67 -365 6 -4 10 -22 10 -41 0 -19 5
-34 11 -34 7 0 9 -12 5 -36 -4 -21 -3 -41 4 -49 6 -7 11 -50 11 -96 1 -46 5
-88 9 -94 4 -5 10 -35 13 -65 3 -30 9 -75 12 -100 10 -79 17 -215 10 -209 -3
4 -23 3 -43 -3 -20 -5 -50 -11 -67 -14 -16 -3 -45 -12 -63 -20 -18 -9 -47 -14
-65 -12 -20 2 -32 -2 -33 -9 -3 -26 -5 -28 -18 -10 -11 14 -19 16 -33 9 -10
-5 -26 -8 -37 -6 -10 1 -27 -2 -36 -9 -14 -8 -22 -8 -33 1 -7 7 -17 9 -20 5
-4 -3 -53 -6 -109 -7 -57 -1 -112 -6 -122 -13 -31 -17 -27 -51 5 -62 18 -6 31
-6 34 0 9 13 21 11 39 -6 12 -12 20 -13 35 -5 25 13 53 14 31 0 -12 -7 -13
-16 -3 -52 7 -26 8 -47 2 -52 -5 -6 -3 -16 5 -25 17 -20 32 -66 18 -57 -5 3
-16 -1 -23 -10 -17 -20 -65 -45 -73 -37 -3 4 -6 1 -6 -6 0 -10 -19 -12 -77 -8
-43 2 -89 7 -103 10 -14 3 -70 11 -125 17 -55 6 -108 13 -117 16 -12 4 -18 0
-18 -11 0 -9 -5 -13 -10 -10 -6 4 -24 -5 -41 -19 -17 -14 -34 -26 -38 -26 -4
0 -29 -20 -55 -44 -31 -30 -52 -61 -64 -95 -11 -33 -36 -70 -72 -108 -107
-112 -118 -136 -67 -152 47 -14 211 -21 249 -11 42 12 138 14 253 7 359 -21
418 -21 544 4 116 22 123 22 188 7 72 -17 110 -10 99 18 -3 8 2 26 11 40 9 14
18 50 19 80 2 30 10 64 18 76 9 12 16 30 16 40 0 44 159 81 175 41 21 -53 17
-71 -29 -119 -38 -39 -48 -45 -60 -35 -23 19 -56 3 -71 -32 -21 -54 -48 -244
-42 -310 2 -34 11 -100 20 -147 8 -47 18 -113 21 -147 8 -72 29 -173 47 -223
15 -44 76 -140 88 -140 5 0 11 -9 14 -21 3 -11 15 -23 26 -26 12 -3 21 -9 21
-13 0 -4 9 -10 20 -13 11 -3 20 -12 20 -21 0 -9 5 -16 11 -16 7 0 32 -18 56
-40 24 -23 48 -38 53 -35 6 3 10 2 10 -4 0 -5 3 -17 7 -27 5 -13 3 -16 -10
-11 -23 9 -21 0 7 -38 28 -36 156 -105 196 -105 14 0 31 -5 37 -11 6 -6 29
-10 52 -7 43 4 43 5 24 -64 -2 -11 1 -18 9 -18 10 0 9 -3 -2 -10 -10 -6 -11
-10 -2 -10 6 0 12 -11 12 -25 0 -14 5 -25 10 -25 6 0 10 -9 10 -20 0 -11 5
-20 10 -20 6 0 10 -18 10 -39 0 -40 16 -63 29 -42 4 6 1 50 -7 98 -15 96 -17
176 -7 267 5 41 4 56 -4 52 -6 -4 -11 -1 -11 6 -3 66 -10 112 -18 117 -12 7
-34 92 -26 100 2 2 4 -2 4 -9 0 -11 3 -11 12 -2 8 8 9 15 3 20 -12 9 -15 27
-19 118 -2 39 -6 76 -10 83 -4 6 0 14 8 17 11 4 28 -7 51 -32 23 -25 35 -32
35 -22 0 25 -11 48 -20 43 -4 -3 -11 6 -14 20 -4 14 -11 25 -16 25 -6 0 -10 7
-10 15 0 17 21 20 36 5 16 -16 67 28 60 52 -6 26 3 48 21 48 8 0 12 4 9 9 -4
5 -1 11 6 13 18 6 18 36 0 34 -13 -1 -17 9 -18 42 -1 23 1 40 6 37 4 -3 10 2
14 10 3 8 12 15 21 15 17 0 20 16 4 26 -6 3 -15 0 -20 -7 -7 -11 -9 -10 -9 4
0 9 4 17 9 17 12 0 9 33 -4 42 -12 9 -7 78 7 95 19 23 38 329 22 355 -3 4 1
16 8 27 10 16 10 23 0 33 -17 17 -15 31 3 24 12 -4 15 3 16 32 1 20 1 42 0 49
-2 17 34 86 53 102 9 8 16 20 16 27 0 8 4 14 9 14 4 0 6 -12 3 -26 -4 -24 11
-37 41 -35 14 1 7 15 -9 17 -27 4 -27 12 3 28 19 11 23 15 11 16 -24 0 -23 4
7 36 14 15 23 34 21 41 -3 7 6 24 19 37 19 20 26 22 35 11 8 -10 8 -15 -2 -18
-7 -2 0 -3 15 -1 27 4 28 2 26 -31 -2 -18 -1 -36 1 -39 3 -2 27 0 53 6 46 9
48 11 28 24 -22 16 -18 44 5 44 8 0 14 7 14 15 0 8 6 15 14 15 11 0 13 9 10
35 -4 32 -1 36 31 49 20 9 35 22 35 31 0 9 5 26 12 38 7 12 13 27 13 32 2 24
26 65 36 65 7 0 9 3 6 6 -3 4 -1 16 5 28 7 11 12 25 13 29 0 4 7 12 15 17 12
7 12 12 2 22 -6 6 -12 22 -12 34 0 12 -6 25 -12 27 -10 4 -10 6 0 6 7 1 19 7
26 13 11 11 11 15 -3 25 -15 11 -15 14 2 41 18 32 23 72 8 72 -6 0 -13 -4 -16
-10 -3 -5 -12 -10 -18 -10 -7 0 0 8 16 18 28 17 37 35 13 26 -28 -11 -30 19
-3 41 23 17 27 29 27 69 0 44 -1 47 -22 41 -20 -6 -19 -3 7 19 l30 25 -29 1
-29 0 26 20 c14 11 31 20 37 20 7 0 10 7 6 16 -8 22 20 47 47 41 28 -7 54 12
59 43 3 24 33 45 93 66 34 12 94 14 100 4 10 -15 25 -12 25 6 0 10 7 14 23 12
13 -1 32 7 45 20 19 19 33 23 75 22 65 -2 100 8 93 26 -4 10 5 14 34 14 21 0
42 -4 45 -10 3 -5 20 -10 36 -10 16 0 46 -7 66 -15 19 -8 45 -15 57 -14 19 0
19 1 -4 12 -14 6 -26 12 -28 13 -8 4 12 34 24 34 8 0 14 5 14 11 0 7 12 9 33
5 88 -17 101 -17 88 -2 -9 10 -9 15 0 18 14 5 99 -7 159 -22 25 -6 57 -12 73
-14 15 -1 33 -10 40 -18 16 -21 83 -42 99 -31 29 18 68 5 68 -22 0 -5 -5 -3
-10 5 -6 9 -10 10 -10 3 0 -13 34 -35 47 -31 4 2 18 -7 30 -19 13 -13 29 -20
38 -17 8 4 15 1 15 -5 0 -6 4 -11 9 -11 4 0 6 11 4 25 -5 23 18 60 30 49 3 -3
34 13 68 35 35 23 68 41 73 41 6 0 24 7 40 15 43 22 84 27 123 14 28 -9 37 -9
44 2 8 14 99 21 99 8 0 -4 15 -7 34 -6 19 1 32 5 30 9 -9 15 15 16 59 3 42
-13 48 -12 71 6 13 10 29 19 34 19 5 0 12 6 15 14 8 19 179 13 229 -8 21 -9
50 -16 65 -16 29 -1 73 -30 73 -49 0 -6 4 -11 10 -11 12 0 110 -132 138 -185
43 -85 60 -132 61 -173 0 -24 4 -49 8 -55 4 -6 8 -34 8 -62 1 -27 8 -72 15
-100 7 -27 12 -99 12 -160 0 -60 4 -115 10 -122 5 -6 8 -20 7 -30 -3 -26 10
-70 39 -127 29 -57 42 -136 44 -261 2 -125 -9 -386 -17 -407 -4 -10 -3 -41 2
-70 5 -29 8 -90 8 -135 -1 -57 1 -80 9 -76 6 4 6 1 -1 -8 -7 -8 -11 -33 -9
-54 2 -22 4 -53 5 -68 1 -16 5 -26 11 -22 6 3 10 41 10 84 0 42 4 81 10 87 5
5 10 38 11 74 1 36 5 75 10 86 4 12 10 57 14 100 7 99 21 116 83 105 50 -10
85 -38 79 -63 -3 -9 1 -22 9 -29 7 -6 13 -18 12 -27 -4 -49 -5 -48 140 -57 75
-5 163 -8 194 -8 59 1 168 29 168 44 0 5 9 9 21 9 12 0 23 8 26 18 10 40 261
60 337 27 25 -11 42 -13 48 -7 13 13 121 3 130 -12 5 -7 8 -6 8 3 0 10 13 12
58 8 31 -3 65 -9 75 -12 10 -4 17 -2 17 5 0 6 4 8 10 5 5 -3 56 5 112 18 117
28 255 35 290 16 14 -8 69 -14 148 -15 69 -1 171 -5 226 -9 83 -6 107 -5 133
8 35 18 96 13 261 -18 97 -19 327 -25 338 -10 4 6 22 11 39 12 18 1 43 11 55
23 12 11 27 20 32 20 6 0 17 9 24 20 7 11 19 20 27 20 8 0 15 4 15 10 0 5 17
12 37 16 39 7 161 -26 193 -52 45 -36 214 -64 275 -44 17 5 103 11 193 14 141
5 172 9 233 31 76 27 139 31 219 14 28 -6 62 -8 76 -5 l24 6 0 734 c0 676 -1
734 -17 740 -9 4 -20 1 -24 -5 -4 -7 -14 -9 -25 -4 -23 9 -42 12 -123 20 -58
6 -63 5 -52 -9 16 -19 8 -21 -11 -3 -7 7 -25 20 -40 30 -24 15 -28 15 -28 2 0
-8 -4 -15 -10 -15 -5 0 -10 7 -10 15 0 21 -33 27 -167 30 -65 2 -147 6 -183 9
-36 3 -105 7 -155 10 -49 3 -105 8 -124 11 -18 4 -45 2 -60 -5 -30 -12 -61
-57 -61 -89 0 -23 -50 -81 -69 -81 -16 0 -14 11 7 27 15 12 14 13 -13 12 -63
-4 -84 1 -90 21 -3 11 -13 20 -20 20 -8 0 -21 13 -30 29 -8 17 -25 37 -37 45
-12 9 -18 16 -13 16 5 0 4 5 -2 11 -12 12 -174 49 -186 42 -5 -3 -21 1 -38 7
-20 9 -33 9 -42 2 -7 -6 -31 -11 -54 -10 -23 0 -47 -3 -55 -8 -16 -10 -62 -13
-198 -12 -121 1 -115 1 -201 -10 -37 -5 -72 -13 -79 -17 -15 -9 -139 -35 -190
-39 -19 -2 -53 -10 -74 -20 -43 -18 -158 -16 -194 3 -11 6 -31 11 -44 11 -46
1 -444 10 -470 12 -15 0 -25 5 -22 9 3 5 -4 9 -15 9 -12 0 -21 -5 -21 -10 0
-6 -15 -8 -38 -4 -26 4 -54 -1 -92 -15 -30 -12 -62 -21 -71 -21 -9 0 -22 -7
-29 -15 -7 -8 -23 -15 -36 -15 -12 0 -26 -4 -29 -10 -9 -15 -108 -12 -146 4
-19 8 -55 30 -81 50 -38 30 -56 37 -96 37 -40 1 -53 -3 -79 -27 -54 -51 -107
-94 -115 -94 -13 0 -9 -28 5 -33 10 -4 10 -6 0 -6 -8 -1 -13 -16 -13 -43 1
-38 2 -41 14 -25 11 15 15 15 25 3 9 -11 9 -15 -1 -19 -8 -4 -7 -6 4 -6 10 -1
23 -11 29 -23 18 -34 38 -50 50 -42 8 5 8 9 -1 14 -6 4 12 7 40 7 32 0 55 5
60 14 7 10 12 10 22 1 20 -16 61 -3 55 18 -3 13 0 16 14 13 18 -5 23 -15 20
-40 -1 -8 9 -13 25 -13 23 0 26 3 21 25 -4 25 -3 25 17 10 11 -8 31 -19 42
-24 22 -10 32 -65 10 -58 -6 2 -16 -3 -22 -12 -10 -13 -14 -13 -28 -2 -14 12
-16 10 -16 -13 0 -14 -4 -26 -10 -26 -5 0 -10 5 -10 12 0 6 -11 -2 -25 -18
-13 -15 -28 -25 -32 -21 -4 5 -3 11 3 15 5 4 7 20 3 37 -6 28 -7 28 -8 5 -1
-23 -5 -25 -51 -26 -27 0 -50 3 -50 8 0 4 8 8 18 8 11 0 7 6 -13 16 -20 10
-41 13 -65 9 -36 -7 -47 -5 -43 7 2 4 -8 7 -21 6 -13 -1 -23 -8 -22 -17 1 -8
-10 -17 -24 -21 -14 -3 -26 -11 -26 -18 -1 -7 -2 -16 -3 -22 -2 -20 -21 -9
-37 21 -12 24 -19 28 -27 20 -8 -8 -8 -14 -2 -19 14 -10 35 -49 35 -64 0 -7
-12 0 -25 15 -14 15 -25 24 -25 20 0 -5 5 -14 12 -21 9 -9 9 -12 -3 -12 -37 0
-51 46 -23 74 8 9 11 16 5 16 -6 0 -11 14 -11 31 0 17 -5 39 -10 49 -10 18
-15 92 -9 135 1 11 11 28 21 39 22 24 23 32 4 39 -10 4 -13 18 -11 43 3 32
-25 153 -50 217 -6 13 -3 16 10 11 14 -6 16 -3 12 12 -3 10 -13 45 -21 76 -9
31 -22 63 -29 70 -6 7 -13 18 -15 23 -1 6 -16 51 -32 100 -16 50 -32 101 -35
115 -2 14 -24 55 -47 90 -24 35 -46 68 -50 74 -4 6 -15 28 -24 48 -9 21 -20
36 -24 33 -5 -3 -11 -1 -15 5 -7 11 -76 44 -87 42 -5 -1 -8 4 -8 12 0 7 -12
22 -27 32 -33 24 -83 76 -83 87 0 5 -6 7 -12 4 -7 -2 -26 2 -41 10 -15 8 -33
11 -40 7 -7 -4 -9 -4 -5 1 4 4 2 15 -5 23 -9 11 -9 16 0 19 8 3 9 13 2 36 -5
18 -9 43 -9 57 0 14 -13 41 -28 60 -23 30 -34 35 -72 38 l-45 2 29 -16 c28
-16 29 -17 11 -30 -10 -8 -27 -14 -36 -14 -10 0 -21 -4 -24 -10 -3 -5 -19 -10
-35 -10 -16 0 -32 -5 -35 -10 -8 -13 -27 -2 -22 13 2 7 -9 17 -26 22 -31 11
-48 36 -68 103 -12 40 -33 55 -42 30 -2 -7 -12 3 -22 22 -23 47 -58 75 -130
109 -50 23 -72 27 -128 25 -38 -1 -71 -5 -74 -8 -4 -3 -1 -6 5 -6 7 0 12 -4
12 -10 0 -21 -19 -8 -90 59 -71 66 -138 101 -196 101 -11 0 -26 6 -32 12 -10
10 -17 10 -32 0 -17 -10 -26 -8 -58 12 -21 13 -67 38 -102 57 -72 36 -128 41
-250 21 -36 -6 -103 -10 -148 -9 -47 1 -83 -2 -85 -8 -3 -6 -9 -6 -18 1 -12
10 -31 16 -89 28 -8 2 -67 -3 -130 -10z m975 -195 l16 -30 -28 17 c-15 10 -30
19 -32 20 -6 4 10 24 19 24 5 0 17 -14 25 -31z m499 -125 c3 -8 -1 -14 -8 -14
-16 0 -38 24 -30 33 9 9 32 -3 38 -19z m66 -100 c0 -19 -16 -18 -24 2 -11 27
-7 37 9 24 8 -7 15 -19 15 -26z m400 -134 c0 -5 -4 -12 -10 -15 -5 -3 -10 -22
-10 -41 0 -34 -1 -35 -32 -32 -30 3 -33 6 -36 41 -3 31 0 37 17 37 23 0 41 22
23 28 -7 2 -12 7 -12 12 0 5 14 2 30 -6 17 -9 30 -19 30 -24z m-160 -20 c0
-12 -40 -33 -48 -25 -4 4 2 13 12 21 23 16 36 18 36 4z m-3610 -519 c0 -5 -13
-19 -30 -31 -34 -24 -37 -20 -14 15 16 24 44 34 44 16z m4255 -971 c3 -5 1
-10 -4 -10 -6 0 -11 5 -11 10 0 6 2 10 4 10 3 0 8 -4 11 -10z m1855 -10 c0 -3
17 -12 37 -19 27 -10 38 -11 41 -2 2 6 9 8 15 4 7 -4 28 -8 47 -9 60 -3 114
-14 147 -32 l33 -16 -27 -28 c-26 -27 -26 -28 -5 -28 29 0 35 -14 14 -39 -13
-16 -32 -22 -82 -26 -36 -2 -80 -9 -99 -15 -19 -5 -38 -7 -42 -4 -5 3 -19 -2
-32 -11 -20 -13 -33 -14 -68 -6 -32 7 -46 7 -51 -2 -5 -8 -8 -9 -8 -1 0 7 -26
18 -57 25 -46 11 -59 18 -61 35 -2 12 -13 27 -25 33 -13 7 -23 21 -24 32 -1
11 3 17 9 13 6 -4 6 1 -1 14 -15 29 -14 32 12 32 13 0 28 5 34 11 25 25 82 44
136 44 31 1 57 -2 57 -5z m1240 -60 c63 -10 149 -46 170 -71 3 -4 15 -9 26
-13 12 -4 25 -17 28 -29 9 -35 7 -77 -4 -77 -6 0 -10 -8 -8 -17 2 -12 -4 -18
-17 -17 -11 0 -24 -6 -28 -14 -5 -7 -18 -12 -30 -11 -12 1 -35 -4 -52 -10 -19
-8 -50 -11 -85 -7 -63 7 -229 32 -277 42 -38 7 -67 46 -60 81 3 18 -1 27 -17
34 -37 17 -21 99 20 99 13 0 24 5 24 10 0 7 28 10 75 9 41 -2 77 0 81 4 7 6
49 3 154 -13z m-2540 -20 c0 -5 -7 -10 -15 -10 -8 0 -15 5 -15 10 0 6 7 10 15
10 8 0 15 -4 15 -10z m-330 -141 c17 -13 37 -20 49 -16 11 3 25 -1 32 -9 6 -8
20 -14 29 -14 10 0 33 -18 51 -41 38 -49 29 -63 -38 -55 -25 3 -43 2 -43 -4 0
-6 -7 -10 -16 -10 -9 0 -12 -5 -8 -12 5 -9 2 -9 -9 1 -15 12 -17 11 -17 -3 0
-27 -28 -29 -59 -4 -33 26 -40 62 -14 77 14 7 15 12 5 24 -7 8 -14 31 -16 51
-3 43 11 46 54 15z m145 -19 c3 -6 -1 -7 -9 -4 -18 7 -21 14 -7 14 6 0 13 -4
16 -10z m-5498 -415 c0 -8 -9 -15 -20 -15 -16 0 -17 3 -7 15 7 8 16 15 20 15
3 0 7 -7 7 -15z m1139 -1157 c-4 -18 -10 -68 -15 -111 -5 -51 -14 -84 -25 -95
-16 -16 -16 -11 -10 83 7 98 23 155 45 155 7 0 9 -12 5 -32z m-133 -375 c16
-53 13 -64 -20 -69 -13 -2 -33 54 -33 92 0 23 21 48 31 37 4 -5 14 -32 22 -60z"/>
<path d="M7365 10190 c11 -5 29 -9 40 -9 17 -1 17 1 5 9 -8 5 -26 9 -40 9 -23
0 -23 -1 -5 -9z"/>
<path d="M7582 10048 c2 -6 10 -14 16 -16 7 -2 10 2 6 12 -7 18 -28 22 -22 4z"/>
<path d="M8070 9710 c0 -5 5 -10 11 -10 5 0 7 5 4 10 -3 6 -8 10 -11 10 -2 0
-4 -4 -4 -10z"/>
<path d="M2406 7908 c6 -22 -11 -25 -20 -3 -3 8 -14 15 -25 15 -10 0 -21 -7
-25 -15 -3 -9 -18 -15 -34 -15 -16 0 -35 -7 -42 -15 -10 -12 -15 -13 -20 -4
-4 6 -13 8 -19 5 -15 -10 -14 -36 2 -36 7 -1 5 -6 -5 -14 -22 -16 -23 -36 -2
-36 8 0 12 -4 9 -10 -3 -5 2 -9 12 -8 37 3 53 -2 53 -17 0 -18 26 -20 33 -2 3
9 8 9 18 -2 12 -12 12 -13 -1 -6 -12 7 -13 6 -2 -6 10 -11 14 -11 21 -1 6 10
10 10 20 -2 9 -11 20 -12 49 -4 25 7 37 7 40 0 2 -6 10 -8 18 -5 7 3 12 9 9
13 -3 5 6 22 20 38 18 21 24 39 21 56 -3 16 2 32 11 41 20 21 13 27 -34 28
-24 1 -37 6 -36 14 2 9 -10 12 -37 11 -34 -1 -39 -4 -34 -20z"/>
<path d="M2498 7923 c7 -3 16 -2 19 1 4 3 -2 6 -13 5 -11 0 -14 -3 -6 -6z"/>
<path d="M5316 7723 c-3 -3 -3 -10 0 -14 7 -12 34 -11 34 0 0 11 -26 22 -34
14z"/>
<path d="M5297 7652 c-23 -25 -21 -42 2 -42 21 0 54 38 45 52 -9 14 -30 9 -47
-10z"/>
<path d="M5440 7639 c0 -5 -4 -7 -10 -4 -5 3 -10 -2 -10 -13 0 -10 7 -19 15
-19 8 0 15 6 15 14 0 7 5 13 10 13 6 0 10 5 10 10 0 6 -7 10 -15 10 -8 0 -15
-5 -15 -11z"/>
<path d="M5293 7583 c-20 -7 -15 -23 10 -32 22 -9 37 1 37 27 0 12 -24 15 -47
5z"/>
<path d="M5565 7530 c3 -5 10 -10 16 -10 5 0 9 5 9 10 0 6 -7 10 -16 10 -8 0
-12 -4 -9 -10z"/>
<path d="M5852 7510 c-9 -11 -34 -23 -54 -27 -21 -3 -38 -9 -38 -14 0 -5 -11
-9 -24 -9 -36 0 -107 -28 -122 -48 -7 -9 -14 -14 -14 -10 0 4 -12 3 -27 -3
-16 -7 -64 -14 -108 -16 -44 -3 -90 -5 -103 -6 -13 -1 -28 -10 -33 -19 -6 -10
-18 -18 -27 -19 -10 0 -12 -3 -4 -6 24 -9 12 -23 -21 -23 -27 0 -41 -9 -71
-41 -20 -23 -41 -50 -47 -60 -5 -10 -16 -19 -24 -19 -8 0 -15 -4 -15 -10 0 -5
10 -10 22 -10 17 0 19 -3 10 -12 -8 -8 -15 -8 -26 1 -19 16 -36 6 -36 -20 0
-20 15 -26 23 -9 3 6 4 5 3 -2 -2 -7 1 -21 6 -32 7 -13 7 -16 -1 -12 -6 4 -11
0 -11 -8 0 -9 4 -16 10 -16 5 0 0 -15 -11 -34 -10 -18 -17 -40 -14 -48 3 -8
-3 -25 -15 -38 -11 -13 -20 -31 -20 -41 0 -9 -4 -19 -8 -21 -5 -1 -3 -33 3
-70 12 -74 10 -88 -12 -88 -12 0 -14 -7 -9 -34 6 -29 4 -35 -13 -38 -18 -3
-19 -6 -8 -28 8 -14 20 -24 30 -22 13 2 15 -2 7 -25 -5 -15 -11 -46 -14 -68
-3 -22 -5 -41 -6 -41 0 -1 -9 -4 -20 -7 -16 -4 -20 -12 -18 -37 2 -24 6 -30
20 -27 10 3 21 1 24 -4 3 -5 -13 -9 -35 -9 -45 0 -51 -8 -21 -30 25 -18 26
-37 3 -43 -16 -3 -16 -5 2 -12 11 -4 28 -17 37 -29 13 -16 20 -18 29 -9 13 13
3 37 -12 28 -14 -9 -11 2 7 19 22 23 36 20 32 -6 -3 -20 1 -23 30 -22 18 1 32
-3 33 -10 0 -6 4 -1 9 10 11 28 50 39 50 14 0 -33 25 -42 54 -19 14 11 26 16
26 10 0 -6 9 -11 20 -11 10 0 24 -8 29 -17 9 -16 10 -16 11 3 0 12 7 24 15 27
17 7 30 -9 15 -18 -6 -4 -8 -11 -5 -16 4 -5 1 -9 -4 -9 -6 0 -11 -5 -11 -11 0
-6 12 -9 28 -7 15 2 26 8 25 14 -3 18 32 45 50 38 14 -5 14 -9 0 -40 -9 -19
-20 -34 -25 -34 -4 0 -8 -4 -8 -9 0 -5 16 -12 36 -16 29 -5 40 -2 55 14 18 19
17 51 -2 51 -5 0 -9 5 -9 10 0 15 21 12 41 -6 10 -9 39 -18 64 -20 58 -4 63
-8 57 -39 -5 -30 3 -31 46 -5 18 11 38 20 45 20 6 0 3 -6 -8 -12 -11 -7 -31
-22 -45 -35 -19 -18 -22 -25 -12 -35 18 -18 15 -34 -14 -63 -20 -20 -34 -26
-56 -23 -21 4 -32 0 -39 -14 -7 -12 -17 -17 -26 -13 -9 3 -20 0 -25 -7 -6 -10
-8 -8 -8 5 0 29 -34 13 -35 -17 0 -5 -6 -11 -12 -13 -7 -3 -13 2 -13 11 0 18
-45 23 -55 6 -5 -8 -11 -7 -21 1 -17 14 -19 12 -28 -21 -6 -21 -5 -22 4 -7 13
21 30 22 30 3 0 -8 -13 -21 -30 -30 -16 -8 -30 -10 -30 -5 0 15 -30 10 -36 -5
-7 -18 -34 -9 -34 10 0 24 -21 15 -57 -23 l-35 -38 7 50 c4 28 11 57 15 66 7
13 4 15 -20 11 -26 -4 -28 -7 -23 -38 4 -22 0 -42 -10 -57 -18 -29 -24 -58
-14 -74 13 -20 -4 -64 -28 -73 -37 -14 -63 -2 -70 34 -11 57 -45 103 -45 61 0
-8 7 -15 15 -15 8 0 15 -5 15 -11 0 -6 -6 -9 -14 -6 -10 4 -16 -6 -22 -31 -4
-20 -6 -41 -4 -47 12 -42 5 -73 -26 -109 -35 -41 -36 -56 -3 -56 10 0 19 -7
19 -15 0 -12 -7 -14 -27 -9 -23 6 -25 5 -20 -15 3 -12 -1 -38 -9 -57 -9 -21
-12 -48 -9 -68 5 -23 2 -38 -9 -49 -19 -19 -19 -18 -5 -54 6 -15 11 -50 10
-76 -2 -27 3 -55 10 -63 7 -9 14 -44 15 -77 2 -34 5 -69 7 -77 2 -8 7 -37 12
-65 4 -27 10 -54 13 -60 3 -5 7 -23 9 -40 2 -16 10 -70 18 -119 14 -81 14 -91
0 -98 -8 -5 -15 -16 -15 -23 0 -8 -4 -15 -10 -15 -5 0 -10 9 -10 21 0 21 -50
79 -69 79 -14 0 -14 -13 1 -28 9 -9 7 -12 -9 -12 -12 0 -24 -4 -27 -9 -10 -15
5 -20 31 -10 19 7 24 6 20 -3 -2 -7 -11 -12 -21 -10 -19 3 -21 -9 -4 -26 9 -9
8 -15 -7 -25 -12 -10 -14 -16 -6 -21 7 -5 9 -21 5 -47 -4 -26 -2 -49 6 -65 10
-17 11 -27 3 -35 -8 -8 -13 -5 -18 10 -6 21 -21 26 -49 15 -22 -8 -20 -34 2
-34 16 -1 16 -1 0 -11 -20 -11 -24 -54 -7 -65 8 -5 8 -9 -1 -14 -9 -6 -8 -15
4 -39 9 -17 20 -31 25 -31 5 0 5 -19 1 -42 -5 -24 -4 -48 0 -54 10 -11 3 -52
-13 -71 -5 -7 -6 -13 -1 -13 5 0 1 -5 -8 -11 -10 -5 -18 -18 -18 -29 0 -10 -5
-20 -10 -22 -6 -2 -12 -23 -13 -48 -2 -25 -6 -50 -9 -55 -11 -17 -5 -109 8
-134 14 -27 10 -41 -12 -41 -8 0 -14 -9 -14 -21 0 -11 -4 -18 -9 -15 -20 13
-21 -28 0 -50 17 -18 19 -26 9 -44 -6 -12 -18 -19 -25 -16 -8 3 -17 1 -20 -3
-6 -11 22 -34 33 -27 5 3 7 -6 4 -20 -2 -14 -10 -23 -17 -21 -6 3 -18 1 -26
-4 -11 -6 -11 -11 -1 -21 17 -17 15 -25 -8 -31 -11 -3 -18 -1 -15 3 3 5 1 11
-5 15 -6 4 -10 -5 -10 -19 0 -29 9 -33 29 -13 11 10 13 6 7 -22 -3 -18 -6 -37
-6 -41 0 -5 -12 -11 -27 -15 -44 -10 -86 -52 -79 -78 3 -14 -2 -29 -15 -43
-17 -18 -19 -26 -10 -42 6 -12 11 -23 11 -26 0 -12 -38 -6 -43 7 -3 6 -6 1 -6
-13 -1 -14 -5 -30 -9 -36 -11 -17 -40 -24 -46 -11 -4 7 -4 0 -1 -15 4 -19 -1
-34 -15 -48 -11 -11 -20 -30 -20 -42 0 -13 -7 -36 -15 -51 -8 -16 -14 -38 -12
-49 1 -15 -5 -24 -23 -29 -14 -4 -20 -8 -15 -8 6 -1 -1 -10 -15 -21 l-25 -20
23 -6 c25 -7 30 -24 7 -24 -13 0 -21 -26 -16 -54 1 -5 -6 -17 -15 -27 -19 -22
-16 -29 15 -32 30 -2 26 -15 -6 -23 -38 -9 -55 -24 -48 -42 3 -8 0 -21 -6 -28
-6 -8 -9 -21 -5 -29 3 -10 -3 -17 -19 -21 -23 -6 -31 -25 -26 -57 3 -15 -44
-3 -51 13 -5 12 -7 12 -7 -2 -1 -10 -7 -18 -14 -18 -18 0 -57 55 -57 80 0 11
-7 20 -15 20 -17 0 -20 16 -5 25 6 3 2 21 -10 43 -11 20 -20 41 -20 46 0 5 -7
18 -16 27 -9 10 -17 36 -18 58 0 22 -3 36 -6 31 -3 -5 -17 0 -30 11 -17 14
-21 22 -12 26 19 8 14 33 -7 33 -11 0 -23 4 -26 10 -6 9 -41 26 -102 50 -18 7
-31 15 -29 19 3 4 -15 29 -40 55 -24 27 -44 55 -44 63 0 8 -7 22 -16 31 -13
13 -16 30 -11 87 10 136 82 248 242 377 95 77 120 101 108 105 -18 6 -205 -66
-338 -131 -71 -35 -141 -67 -155 -71 -53 -15 -177 -87 -225 -130 -27 -25 -59
-45 -70 -45 -44 -1 -170 -52 -237 -96 -39 -25 -102 -58 -140 -72 -71 -26 -152
-87 -163 -122 -6 -20 -35 -27 -49 -13 -4 4 -22 8 -39 9 -18 0 -46 4 -63 8 -25
6 -36 4 -52 -12 -13 -13 -28 -19 -41 -15 -12 3 -21 1 -21 -6 0 -6 -7 -11 -15
-11 -8 0 -15 -5 -15 -11 0 -6 -9 -9 -19 -6 -13 3 -30 -6 -51 -26 -23 -23 -33
-28 -39 -18 -6 10 -16 5 -39 -17 -21 -21 -37 -29 -52 -25 -11 3 -20 0 -20 -6
0 -6 5 -11 11 -11 5 0 7 -5 4 -10 -5 -8 -11 -8 -20 0 -15 12 -31 -3 -20 -19 3
-6 -6 -6 -25 -1 -28 8 -30 7 -25 -11 6 -17 3 -19 -18 -14 -14 4 -28 2 -31 -4
-4 -6 -16 -11 -27 -11 -10 0 -18 -6 -16 -12 1 -8 -8 -12 -25 -10 -16 2 -28 -1
-28 -7 0 -6 5 -11 10 -11 6 0 10 -4 10 -10 0 -6 -9 -6 -26 0 -35 14 -47 12
-41 -5 4 -8 2 -17 -3 -20 -6 -4 -10 -2 -10 4 0 6 -7 8 -16 4 -16 -6 -16 -7 0
-18 15 -11 15 -13 -1 -26 -9 -8 -14 -9 -10 -3 8 13 -18 22 -46 16 -23 -5 -22
-19 2 -27 41 -13 45 -32 11 -65 -17 -16 -36 -30 -43 -30 -7 0 -33 -18 -57 -40
-24 -22 -49 -40 -56 -40 -6 0 -14 -9 -17 -20 -3 -12 -14 -20 -25 -20 -13 0
-22 -9 -26 -25 -4 -14 -11 -23 -15 -20 -5 3 -22 -6 -38 -19 -15 -13 -43 -27
-62 -31 -19 -4 -41 -13 -48 -21 -16 -16 -82 -36 -95 -28 -4 3 -8 1 -8 -4 0
-14 -51 -32 -88 -30 -17 0 -40 -6 -50 -15 -10 -10 -23 -17 -29 -17 -6 0 -23
-24 -38 -52 -25 -47 -28 -66 -32 -168 l-4 -115 -52 -45 c-135 -117 -191 -183
-244 -291 -39 -80 -71 -127 -130 -192 -43 -48 -90 -95 -103 -104 -38 -26 -49
-45 -50 -84 0 -20 -17 -73 -39 -120 -21 -46 -46 -109 -56 -139 -25 -79 -54
-138 -90 -190 -17 -25 -37 -60 -45 -77 -7 -18 -16 -33 -20 -33 -14 0 -50 -85
-50 -117 0 -29 -10 -61 -65 -208 -14 -38 -35 -99 -46 -135 -12 -36 -27 -82
-35 -103 -8 -20 -14 -42 -14 -47 0 -7 1476 -10 4233 -10 l4234 0 46 74 c73
114 77 115 77 12 l0 -86 591 0 591 0 -5 22 c-3 13 -13 79 -22 148 -33 244
-106 622 -170 880 -36 143 -126 438 -170 555 -14 39 -38 101 -52 139 -14 38
-46 115 -73 170 -26 56 -55 124 -65 151 -25 68 -116 223 -173 293 -61 76 -172
176 -247 223 -80 50 -209 102 -343 139 -75 21 -171 54 -212 74 -53 25 -99 38
-155 45 -44 5 -100 19 -125 29 -50 22 -140 38 -140 25 0 -4 25 -35 55 -67 30
-33 52 -62 49 -65 -3 -3 -16 6 -28 22 -12 15 -27 27 -33 27 -7 0 -16 8 -22 17
-7 14 -12 15 -23 5 -8 -6 -18 -9 -21 -5 -4 3 -7 -1 -7 -9 0 -9 -10 -19 -22
-22 l-23 -7 23 -11 c12 -6 25 -23 28 -37 10 -50 24 -73 39 -67 16 6 21 -19 6
-28 -5 -4 -3 -19 6 -36 19 -40 12 -59 -21 -53 -14 3 -23 10 -20 18 3 7 -9 24
-25 38 -19 16 -31 35 -31 50 0 16 -12 35 -31 51 -27 23 -79 89 -79 101 0 24
-260 264 -335 310 -11 6 -62 38 -113 70 -58 36 -97 54 -103 48 -11 -11 -30
-77 -69 -244 -33 -144 -76 -257 -128 -344 -20 -33 -95 -121 -167 -195 -75 -77
-148 -163 -170 -200 -129 -214 -210 -309 -267 -311 -15 -1 -40 -1 -55 -2 -21
-1 -28 4 -28 19 0 16 -6 19 -40 17 -22 -1 -47 1 -55 4 -8 3 -27 5 -42 4 -18
-2 -30 4 -38 19 -6 12 -14 19 -17 17 -2 -3 -19 1 -38 8 -18 8 -35 11 -39 8 -3
-4 -6 -2 -6 4 0 6 10 13 22 16 l22 6 -22 19 c-27 24 -28 32 -2 32 16 0 19 5
15 23 -4 15 2 37 15 60 14 24 22 55 23 92 1 50 3 55 23 55 27 0 54 35 54 68 0
13 4 20 10 17 16 -10 24 24 10 41 -16 18 -5 31 30 36 17 2 26 10 28 26 2 12
-1 22 -7 22 -6 0 -11 -5 -11 -11 0 -8 -6 -7 -16 2 -15 12 -13 14 15 21 17 5
31 14 31 20 0 6 7 19 15 28 15 16 11 50 -5 50 -4 0 -7 15 -5 33 2 28 8 34 46
48 48 17 84 67 75 104 -3 11 3 28 13 40 10 11 27 50 39 87 20 63 21 69 6 105
-9 20 -17 60 -19 88 -1 28 -8 62 -15 74 -10 19 -10 25 1 32 8 5 9 9 3 9 -6 0
-14 14 -18 32 -5 24 -2 34 9 41 13 7 14 12 4 23 -6 8 -9 25 -7 39 3 14 1 28
-3 31 -16 10 -9 32 11 37 11 3 22 2 25 -2 8 -14 50 -4 53 12 2 12 -4 17 -20
18 -19 0 -17 3 11 13 19 7 37 19 40 27 12 31 87 109 137 144 62 43 131 71 199
80 129 17 355 101 340 126 -4 6 -13 8 -19 6 -7 -3 -18 3 -24 13 -6 10 -7 20
-3 22 5 2 12 17 15 35 7 28 5 31 -13 26 -12 -3 -21 -1 -21 6 0 6 5 11 10 11 6
0 10 7 10 15 0 15 -40 21 -98 16 -18 -1 -24 5 -28 28 -5 26 -9 29 -25 21 -14
-8 -21 -6 -29 10 -6 11 -8 25 -5 30 4 6 -7 15 -24 21 -17 6 -31 17 -31 24 0 7
-7 18 -15 25 -8 7 -12 16 -9 21 3 5 -1 9 -8 9 -8 0 -25 12 -39 28 -15 15 -43
42 -63 60 -42 38 -46 75 -8 80 12 2 22 9 22 16 0 8 -10 11 -31 8 -24 -4 -30
-1 -27 9 3 9 18 13 39 12 19 -1 36 2 39 5 14 18 57 33 126 43 l76 12 19 43
c10 24 23 44 29 44 17 0 33 51 20 64 -8 8 -13 7 -19 -2 -6 -10 -10 -10 -20 2
-11 13 -2 26 52 82 46 47 67 77 72 101 7 40 1 51 -18 35 -8 -7 -16 -9 -19 -6
-4 3 -20 -1 -36 -10 -21 -11 -45 -14 -79 -10 -42 5 -52 11 -71 41 l-23 34 32
27 c18 15 36 30 42 33 5 4 7 11 3 17 -8 13 122 20 192 11 30 -4 67 -3 85 3 18
5 49 9 70 9 21 -1 62 10 91 23 72 33 175 58 208 51 26 -6 28 -10 28 -51 0 -51
14 -84 35 -84 7 0 29 26 49 58 19 31 44 68 55 81 23 26 36 68 46 149 9 68 -17
179 -62 265 -13 25 -13 30 1 46 15 16 15 19 -4 36 -11 10 -20 15 -20 12 0 -4
-9 1 -21 11 -26 22 -53 78 -44 92 4 6 -13 29 -36 50 -41 37 -42 40 -25 53 16
12 11 16 -58 43 -41 17 -88 42 -104 56 -32 28 -89 43 -107 28 -11 -9 -10 -19
3 -52 13 -32 14 -42 4 -46 -16 -5 -52 -75 -52 -102 0 -12 7 -20 16 -20 21 0
114 -97 114 -120 0 -20 83 -130 156 -205 53 -55 84 -108 84 -143 0 -18 -4 -20
-32 -12 -26 8 -35 6 -54 -14 -33 -32 -134 -62 -162 -47 -61 32 -322 113 -367
113 -11 0 -46 -2 -78 -5 -56 -5 -90 9 -49 20 12 3 28 21 37 40 15 31 15 37 1
57 -8 13 -14 39 -13 57 0 19 -3 43 -7 54 -7 17 -6 17 4 5 9 -12 11 -10 6 11
-7 33 8 47 57 53 20 2 46 8 59 12 31 9 155 84 170 102 17 19 12 92 -6 111 -24
24 -79 18 -125 -12 -26 -17 -41 -23 -41 -15 0 9 -3 9 -9 -1 -7 -11 -19 -6 -56
27 -26 23 -52 40 -58 39 -9 -2 -40 46 -73 111 -16 33 -154 76 -169 53 -13 -22
-25 -10 -25 24 0 40 -15 47 -24 10 -7 -29 -22 -33 -29 -7 -4 16 -5 16 -6 0 0
-10 -9 -18 -18 -19 -10 0 -26 -2 -35 -4 -21 -4 -22 4 -6 59 11 37 51 86 71 86
15 0 6 -16 -23 -40 -36 -30 -37 -34 -6 -48 19 -9 23 -8 22 6 0 9 9 18 24 22
21 5 25 12 25 41 0 36 43 127 75 159 22 22 25 36 10 45 -5 3 -10 16 -10 29 0
12 -4 26 -9 32 -5 5 -11 20 -13 34 -1 14 -9 30 -17 36 -16 12 -12 160 4 172
15 11 43 73 50 112 6 36 35 80 53 80 25 0 35 34 35 121 0 67 -4 94 -14 100
-10 6 -11 11 -3 17 6 4 9 26 6 50 -4 36 -7 42 -28 42 -16 0 -24 6 -24 18 0 9
-7 26 -15 36 -13 18 -16 18 -39 2 -24 -15 -27 -15 -59 4 -33 20 -79 20 -85 0
-5 -14 -55 -13 -69 1 -6 6 -9 17 -6 24 7 19 -42 48 -67 40 -11 -4 -20 -2 -20
4 0 6 -12 14 -27 17 -15 4 -34 13 -41 21 -7 7 -24 13 -38 13 -13 0 -24 5 -24
11 0 18 -32 38 -60 39 -20 0 -22 2 -10 10 13 9 11 13 -10 30 -14 11 -31 18
-38 15 -7 -2 -35 0 -64 5 -32 7 -55 7 -62 0 -18 -14 -56 0 -56 21 0 22 -32 39
-38 21 -2 -7 -11 -12 -20 -12 -9 0 -30 -7 -46 -15 -35 -18 -36 -18 -36 0 0 8
9 15 20 15 11 0 20 5 20 10 0 18 -40 11 -58 -10z m648 -226 c0 -2 -7 -4 -15
-4 -8 0 -15 4 -15 10 0 5 7 7 15 4 8 -4 15 -8 15 -10z m-1270 -42 c0 -11 -37
-32 -44 -25 -8 9 14 33 30 33 8 0 14 -3 14 -8z m-183 -834 c-3 -8 -6 -5 -6 6
-1 11 2 17 5 13 3 -3 4 -12 1 -19z m7 -53 c3 -8 1 -15 -4 -15 -6 0 -10 7 -10
15 0 8 2 15 4 15 2 0 6 -7 10 -15z m654 -143 c2 -7 -3 -12 -12 -12 -9 0 -16 7
-16 16 0 17 22 14 28 -4z m842 -167 c0 -13 -81 -57 -96 -51 -9 3 -22 2 -28 -2
-15 -12 -116 -25 -116 -15 1 27 32 42 103 49 23 2 60 8 82 13 53 12 55 12 55
6z m-1495 -304 c3 -5 1 -12 -5 -16 -5 -3 -10 1 -10 9 0 18 6 21 15 7z m1855
-431 c0 -5 -4 -10 -10 -10 -5 0 -10 5 -10 10 0 6 5 10 10 10 6 0 10 -4 10 -10z
m369 -136 c3 -16 1 -17 -13 -5 -19 16 -21 34 -3 29 6 -3 14 -13 16 -24z m-505
-890 c4 -10 1 -14 -6 -12 -15 5 -23 28 -10 28 5 0 13 -7 16 -16z m-2034 -874
c0 -5 -7 -10 -15 -10 -8 0 -15 5 -15 10 0 6 7 10 15 10 8 0 15 -4 15 -10z
m-2200 -410 c0 -5 -4 -10 -10 -10 -5 0 -10 5 -10 10 0 6 5 10 10 10 6 0 10 -4
10 -10z m-460 -224 c0 -3 -4 -8 -10 -11 -5 -3 -10 -1 -10 4 0 6 5 11 10 11 6
0 10 -2 10 -4z m-170 -116 c0 -5 -5 -10 -11 -10 -5 0 -7 5 -4 10 3 6 8 10 11
10 2 0 4 -4 4 -10z m6010 -135 c0 -8 -4 -15 -9 -15 -13 0 -22 16 -14 24 11 11
23 6 23 -9z m-5883 -51 c10 -22 10 -25 -3 -20 -8 3 -14 -1 -14 -9 0 -8 -3 -15
-8 -15 -9 0 -28 -45 -37 -88 -5 -23 -11 -32 -21 -28 -8 3 -14 1 -14 -4 0 -5
-9 -12 -20 -15 -11 -3 -20 -13 -20 -21 0 -8 -7 -14 -15 -14 -8 0 -15 -4 -15
-10 0 -5 -8 -10 -19 -10 -10 0 -24 -6 -30 -14 -6 -7 -53 -31 -104 -52 -50 -21
-103 -46 -116 -56 -13 -10 -29 -18 -37 -18 -7 0 -15 -6 -18 -12 -5 -10 -7 -10
-12 0 -3 6 -13 12 -22 11 -10 0 -12 -3 -5 -5 13 -6 6 -34 -9 -34 -5 0 -6 5 -3
10 3 6 -2 13 -12 17 -21 7 -53 38 -53 51 0 6 -9 12 -20 15 -57 15 18 82 147
133 47 19 120 46 162 60 65 23 135 56 237 112 13 7 28 22 34 32 13 24 31 18
47 -16z m5979 11 c9 -24 70 -37 133 -30 37 4 67 3 79 -4 21 -11 109 -184 119
-233 5 -27 4 -27 -32 -23 -21 3 -43 1 -49 -4 -12 -9 -83 -26 -103 -24 -31 2
-5 -65 43 -115 43 -44 87 -109 82 -123 -4 -11 -77 41 -78 54 0 5 -16 25 -35
45 -19 20 -35 42 -35 48 0 6 -7 18 -16 25 -22 18 -77 106 -102 161 -11 25 -25
49 -31 52 -6 4 -11 14 -11 23 0 9 -13 38 -30 65 -33 53 -36 68 -18 86 17 17
77 15 84 -3z m-2001 -286 c12 -19 -5 -23 -22 -6 -16 16 -16 17 -1 17 9 0 20
-5 23 -11z m-265 -79 c8 -8 14 -22 12 -31 -2 -10 9 -18 34 -25 30 -7 40 -16
49 -42 6 -19 18 -38 28 -43 9 -6 17 -20 17 -33 0 -12 7 -31 15 -42 14 -19 14
-19 15 1 0 12 3 16 8 9 4 -6 17 -16 30 -23 12 -6 22 -18 22 -26 0 -8 10 -21
23 -30 l22 -16 -27 6 c-23 6 -26 4 -21 -14 7 -27 -32 -44 -153 -65 -85 -15
-255 -22 -266 -11 -3 3 -50 8 -104 10 -55 2 -112 6 -129 9 -16 3 -54 8 -83 12
-29 4 -55 11 -58 15 -3 5 -13 9 -23 9 -30 0 -233 69 -280 96 -24 13 -60 28
-81 34 -55 15 -133 94 -113 114 9 9 54 -35 47 -45 -10 -17 31 5 44 23 15 20
86 26 98 7 4 -7 22 -9 45 -6 53 7 119 -10 149 -37 14 -13 43 -27 65 -30 22 -3
56 -8 75 -11 19 -3 41 -12 50 -20 8 -7 17 -14 20 -14 12 0 57 -21 85 -40 17
-12 38 -21 48 -21 10 0 28 -9 40 -20 12 -11 27 -18 35 -15 7 3 20 5 27 5 14 0
14 11 -2 50 -8 20 -7 31 9 52 11 17 16 33 11 40 -17 29 4 78 34 78 8 0 18 11
23 25 11 30 20 33 13 5 -4 -16 0 -20 18 -21 36 -2 54 2 57 12 2 5 10 9 18 9
22 0 17 16 -11 34 -21 14 -23 19 -13 30 17 18 59 15 78 -4z m60 -36 c0 -2 -7
-4 -15 -4 -8 0 -15 4 -15 10 0 5 7 7 15 4 8 -4 15 -8 15 -10z m-1080 -33 c0
-6 -4 -13 -10 -16 -5 -3 -10 1 -10 9 0 9 5 16 10 16 6 0 10 -4 10 -9z m1290
-41 c0 -5 -5 -10 -11 -10 -5 0 -7 5 -4 10 3 6 8 10 11 10 2 0 4 -4 4 -10z
m2184 -676 c9 -3 16 -11 16 -18 0 -14 80 -120 135 -179 49 -53 50 -68 10 -149
-20 -41 -52 -90 -71 -109 -39 -38 -44 -71 -18 -126 26 -54 56 -69 112 -56 26
6 56 14 68 18 20 6 21 2 27 -74 9 -132 56 -184 133 -147 l37 17 -5 -48 c-4
-42 -12 -56 -64 -111 -76 -83 -102 -100 -163 -112 -43 -8 -58 -6 -98 11 -27
11 -61 19 -76 16 -16 -2 -30 1 -32 7 -2 6 -11 88 -20 181 -10 94 -26 217 -37
275 -11 58 -20 119 -22 137 -1 18 -12 46 -24 63 -12 16 -18 30 -12 30 5 0 10
-4 10 -10 0 -5 4 -10 9 -10 5 0 8 7 7 16 -3 18 -33 44 -51 44 -7 0 -38 26 -71
58 -32 32 -72 68 -89 81 -28 21 -29 22 -5 15 25 -7 25 -6 7 14 -11 11 -16 25
-13 31 14 22 105 76 181 107 85 35 94 37 119 28z"/>
<path d="M1968 2403 c7 -3 16 -2 19 1 4 3 -2 6 -13 5 -11 0 -14 -3 -6 -6z"/>
<path d="M5285 7506 c-17 -6 -44 -21 -60 -33 -17 -12 -44 -23 -60 -25 -45 -5
-39 -32 8 -36 20 -2 37 -7 37 -13 0 -5 7 -9 15 -9 8 0 15 7 15 15 0 7 8 19 18
24 14 9 15 12 3 20 -7 5 -10 14 -7 20 10 16 26 14 26 -4 0 -20 12 -19 43 5 15
12 24 27 20 35 -6 17 -16 17 -58 1z m-95 -70 c0 -3 -4 -8 -10 -11 -5 -3 -10
-1 -10 4 0 6 5 11 10 11 6 0 10 -2 10 -4z"/>
<path d="M5017 7483 c-13 -12 -7 -31 11 -35 15 -4 18 -1 14 18 -4 24 -13 30
-25 17z"/>
<path d="M5068 7413 c7 -3 16 -2 19 1 4 3 -2 6 -13 5 -11 0 -14 -3 -6 -6z"/>
<path d="M5057 7377 c-16 -11 -15 -14 13 -30 16 -10 31 -16 31 -13 5 21 3 33
-8 44 -14 15 -15 15 -36 -1z"/>
<path d="M4895 7350 c3 -5 13 -10 21 -10 8 0 14 5 14 10 0 6 -9 10 -21 10 -11
0 -17 -4 -14 -10z"/>
<path d="M7860 7335 l25 -15 -30 7 c-42 11 -219 7 -222 -4 -2 -6 -30 -6 -74 0
-71 9 -96 4 -69 -14 12 -8 9 -9 -10 -7 -14 2 -24 9 -22 16 2 13 -14 17 -20 4
-1 -5 -25 -16 -53 -25 -37 -12 -51 -13 -57 -4 -10 17 -39 -2 -56 -36 -12 -24
-19 -27 -68 -28 -77 -3 -78 -3 -92 -16 -21 -20 -29 -16 -54 30 -23 41 -63 63
-66 35 -1 -7 -4 -42 -8 -78 -3 -36 -10 -73 -15 -82 -14 -26 -11 -38 11 -38 22
0 29 -35 8 -42 -7 -3 -9 -11 -4 -24 6 -12 10 -15 13 -6 9 23 21 12 28 -25 14
-66 15 -76 19 -185 4 -108 20 -163 45 -163 7 0 19 -18 26 -39 18 -52 92 -119
175 -157 113 -53 125 -58 145 -61 24 -3 104 21 125 38 8 6 32 17 52 23 20 7
42 19 48 27 7 7 19 14 26 14 19 0 39 80 22 91 -15 10 62 80 85 77 17 -2 23 3
25 23 3 27 35 49 70 49 10 0 23 5 29 11 9 9 23 9 57 0 71 -17 79 -16 71 16 -3
15 -10 30 -14 33 -5 3 -13 14 -19 26 -10 19 -9 21 13 16 21 -4 25 -1 25 22 0
30 -49 126 -67 133 -18 7 -16 33 2 33 8 0 15 4 15 9 0 5 16 12 35 15 20 4 33
11 31 15 -3 4 13 18 35 32 74 45 77 48 49 49 -19 0 -21 3 -11 9 8 5 20 7 27 4
22 -8 25 15 2 31 -12 9 -23 26 -25 38 -2 16 0 19 6 9 6 -10 10 -10 16 -1 8 13
-22 39 -46 40 -22 0 -115 33 -168 59 -24 11 -60 23 -80 26 l-36 6 25 -16z m47
-416 c41 -15 73 -49 73 -78 l0 -25 -29 30 c-16 17 -48 39 -70 50 -22 10 -41
22 -41 27 0 10 34 9 67 -4z m-127 -79 c32 -32 36 -58 10 -70 -8 -4 -25 -12
-37 -18 -21 -11 -21 -9 -20 53 1 36 5 65 9 65 4 0 21 -14 38 -30z m-240 0 c0
-5 -2 -10 -4 -10 -3 0 -8 5 -11 10 -3 6 -1 10 4 10 6 0 11 -4 11 -10z"/>
<path d="M1023 7233 c-13 -2 -23 -10 -23 -17 0 -15 40 -15 56 -1 12 10 9 26
-4 24 -4 -1 -17 -4 -29 -6z"/>
<path d="M1570 7226 c-61 -23 -125 -35 -128 -25 -2 5 -8 7 -12 4 -5 -3 -59 -6
-120 -7 -85 -1 -113 1 -120 12 -16 26 -96 21 -86 -6 6 -15 -10 -29 -18 -15
-10 15 -76 11 -76 -5 0 -8 6 -14 14 -14 7 0 19 -7 26 -15 7 -8 21 -15 31 -15
11 0 19 -5 19 -11 0 -6 7 -9 15 -5 8 3 19 -3 25 -14 12 -22 48 -30 72 -16 13
8 26 6 49 -8 27 -16 43 -18 103 -12 39 4 88 8 108 9 20 1 36 4 36 7 -3 14 16
40 28 40 17 0 19 -27 2 -33 -7 -2 -4 -2 7 1 11 2 34 4 52 3 18 0 35 4 38 9 3
6 1 10 -4 10 -6 0 -11 5 -11 11 0 5 5 7 10 4 6 -3 10 -1 10 5 0 6 4 9 9 5 5
-3 15 11 22 32 10 32 10 38 -7 50 -22 16 -49 16 -94 -1z m-30 -56 c0 -5 -6
-10 -14 -10 -8 0 -18 5 -21 10 -3 6 3 10 14 10 12 0 21 -4 21 -10z"/>
<path d="M8190 7199 c0 -9 7 -22 15 -29 19 -16 19 0 0 26 -12 16 -14 16 -15 3z"/>
<path d="M960 7196 c0 -2 7 -7 16 -10 8 -3 12 -2 9 4 -6 10 -25 14 -25 6z"/>
<path d="M8467 6805 c-29 -28 -33 -49 -16 -110 17 -64 91 -259 102 -270 14
-15 0 217 -18 290 -8 33 -14 72 -15 88 0 34 -17 34 -53 2z"/>
<path d="M4905 6529 c-10 -43 -1 -46 12 -4 6 19 7 35 3 35 -5 0 -11 -14 -15
-31z"/>
<path d="M4897 6463 c-5 -7 -5 -13 -1 -13 4 0 -3 -12 -17 -26 l-24 -26 25 7
c33 10 32 9 28 42 -2 18 -6 24 -11 16z"/>
<path d="M8386 6418 c-15 -21 -16 -21 -16 -3 0 14 -3 16 -11 8 -7 -7 -10 -41
-8 -90 2 -43 3 -117 3 -164 -1 -75 1 -86 15 -82 30 8 53 54 62 126 11 79 15
108 25 149 7 31 -17 78 -41 78 -7 0 -21 -10 -29 -22z"/>
<path d="M4850 6375 l-25 -14 28 -1 c17 0 27 5 27 15 0 18 1 18 -30 0z"/>
<path d="M4925 6311 c-3 -5 -1 -12 5 -16 5 -3 10 1 10 9 0 18 -6 21 -15 7z"/>
<path d="M5537 6064 c-14 -14 -6 -24 19 -24 16 0 24 5 22 13 -5 14 -31 21 -41
11z"/>
<path d="M5056 5885 c-3 -8 -1 -17 3 -20 5 -3 11 2 15 10 3 8 1 17 -3 20 -5 3
-11 -2 -15 -10z"/>
<path d="M4700 5865 c0 -8 5 -15 10 -15 6 0 10 7 10 15 0 8 -4 15 -10 15 -5 0
-10 -7 -10 -15z"/>
<path d="M7098 4993 c7 -3 16 -2 19 1 4 3 -2 6 -13 5 -11 0 -14 -3 -6 -6z"/>
<path d="M7003 4983 c9 -2 23 -2 30 0 6 3 -1 5 -18 5 -16 0 -22 -2 -12 -5z"/>
<path d="M4827 4866 c-4 -10 -5 -21 -2 -24 9 -9 17 6 13 25 -3 17 -4 17 -11
-1z"/>
<path d="M4837 4786 c-6 -15 -10 -16 -22 -6 -12 10 -15 10 -15 -3 0 -8 6 -17
14 -20 17 -7 40 17 34 35 -3 7 -7 5 -11 -6z"/>
<path d="M4265 2960 c-3 -5 -1 -10 4 -10 6 0 11 5 11 10 0 6 -2 10 -4 10 -3 0
-8 -4 -11 -10z"/>
</g>
</svg>
