<?xml version="1.0" standalone="no"?>
<!DOCTYPE svg PUBLIC "-//W3C//DTD SVG 20010904//EN"
 "http://www.w3.org/TR/2001/REC-SVG-20010904/DTD/svg10.dtd">
<svg version="1.0" xmlns="http://www.w3.org/2000/svg"
 width="421.000000pt" height="421.000000pt" viewBox="0 0 421.000000 421.000000"
 preserveAspectRatio="xMidYMid meet">
<metadata>
Created by potrace 1.14, written by Peter Selinger 2001-2017
</metadata>
<g transform="translate(0.000000,421.000000) scale(0.100000,-0.100000)"
fill="#000000" stroke="none">
<path d="M1315 3153 c-174 -37 -284 -81 -340 -135 -16 -17 -50 -40 -75 -53
-25 -13 -58 -36 -73 -51 -30 -30 -77 -104 -81 -126 -1 -7 -4 -17 -7 -23 -9
-15 -10 -126 -1 -165 4 -19 3 -58 -3 -90 -13 -62 -11 -114 4 -180 16 -63 67
-241 76 -264 7 -16 5 -17 -11 -8 -26 13 -53 7 -78 -18 -17 -17 -21 -33 -21
-88 0 -58 6 -78 40 -146 41 -81 112 -166 136 -163 8 2 28 8 46 16 36 15 38 14
138 -76 84 -75 106 -91 172 -125 l63 -31 -4 -58 c-6 -73 -27 -115 -63 -123
-44 -12 -162 -105 -163 -130 -1 -6 -45 -42 -100 -79 -141 -98 -181 -140 -195
-207 -2 -8 -4 -15 -5 -15 -1 0 -3 -8 -6 -17 -2 -10 -6 -26 -8 -35 -3 -10 -5
-19 -6 -20 -3 -4 -3 -5 -25 -113 -8 -38 -16 -152 -20 -280 -2 -63 -7 -141 -11
-172 -5 -43 -3 -62 9 -78 9 -12 13 -29 10 -36 -4 -12 124 -14 841 -14 l845 0
-4 78 c-5 96 -13 180 -26 302 -11 104 -12 108 -30 223 -10 67 -10 80 2 88 10
6 21 0 37 -21 38 -48 56 -54 105 -32 23 11 53 29 66 41 22 19 26 20 41 6 9 -8
22 -15 28 -15 7 0 12 -3 12 -7 1 -5 23 -24 51 -43 28 -19 58 -42 69 -50 10 -8
28 -22 40 -30 12 -8 36 -27 54 -42 17 -15 39 -30 49 -34 9 -3 17 -10 17 -15 0
-5 6 -9 14 -9 8 0 16 -4 18 -8 8 -20 129 -83 180 -94 46 -10 62 -9 94 3 39 15
109 93 99 109 -3 5 -1 12 5 15 10 6 7 275 -4 340 -3 17 -10 73 -16 125 -6 52
-13 106 -15 119 -2 13 -7 45 -10 70 -7 45 -42 254 -71 421 -9 47 -17 99 -19
115 -3 17 -11 54 -18 83 -16 59 -13 63 50 76 38 9 113 73 144 124 55 91 116
179 141 207 15 17 28 33 28 36 0 3 11 19 25 35 14 16 25 33 25 37 0 5 7 15 15
24 17 16 12 48 -10 72 -21 21 -63 16 -86 -10 -11 -13 -29 -34 -40 -47 -10 -12
-19 -27 -19 -32 0 -6 -5 -10 -10 -10 -6 0 -14 -8 -17 -17 -4 -10 -20 -31 -36
-48 -27 -28 -28 -28 -17 -5 7 14 25 41 39 60 36 48 51 72 57 93 4 9 10 17 14
17 4 0 13 13 20 30 7 17 16 30 21 30 4 0 11 10 15 23 4 12 10 24 14 27 18 14
36 67 28 86 -17 36 -44 46 -83 30 -19 -8 -35 -20 -35 -25 0 -6 -22 -42 -50
-81 -27 -39 -50 -75 -50 -80 0 -6 -4 -10 -10 -10 -5 0 -10 -5 -10 -10 0 -6 -5
-16 -10 -23 -6 -7 -22 -27 -35 -46 -14 -19 -25 -30 -25 -24 0 14 81 157 92
161 4 2 8 10 8 18 0 8 4 14 9 14 5 0 14 12 20 28 6 15 26 55 46 90 19 34 35
70 35 80 -1 28 -26 53 -59 58 -26 4 -34 0 -62 -38 -17 -24 -36 -54 -42 -68 -7
-14 -14 -27 -17 -30 -10 -9 -100 -172 -100 -181 0 -5 -4 -9 -10 -9 -5 0 -10
-6 -10 -14 0 -8 -7 -16 -15 -20 -8 -3 -15 -4 -15 -2 0 2 32 67 71 145 39 78
72 151 74 161 5 24 -24 60 -50 64 -39 6 -64 -27 -146 -192 -46 -92 -86 -169
-90 -172 -3 -3 -11 -15 -18 -27 -6 -13 -17 -23 -24 -23 -16 0 -43 45 -51 86
-10 46 -83 105 -119 96 -4 -1 -17 -4 -29 -5 -23 -4 -48 -33 -48 -55 0 -8 13
-31 29 -51 56 -71 62 -96 61 -229 -1 -103 14 -188 47 -261 31 -70 31 -64 37
-316 7 -246 15 -434 21 -490 3 -22 7 -62 10 -90 3 -27 8 -59 12 -70 5 -18 4
-19 -13 -5 -55 45 -115 112 -111 123 13 33 -52 106 -100 113 -7 1 -19 8 -26
16 -8 7 -31 27 -51 43 -21 17 -52 44 -70 60 -33 30 -100 87 -145 125 -13 11
-30 20 -38 20 -7 0 -13 3 -13 8 0 6 -64 39 -90 47 -3 1 -18 7 -35 14 -50 22
-83 15 -193 -38 -57 -28 -108 -49 -113 -46 -5 4 -25 2 -45 -4 -34 -9 -32 -6
48 73 46 45 91 93 101 106 25 33 87 167 87 186 0 33 20 54 49 52 56 -4 73 33
87 192 7 87 -3 153 -30 192 -27 41 -69 49 -95 19 -17 -19 -18 -15 -18 112 -1
73 -3 148 -6 167 -10 71 -49 168 -83 205 -19 21 -34 48 -34 60 0 12 -9 31 -20
42 -11 12 -22 36 -25 54 -8 45 -34 85 -64 101 -14 7 -35 21 -46 31 -11 10 -47
31 -80 47 -58 27 -78 34 -127 47 -27 7 -284 12 -313 6z"/>
</g>
</svg>
