<?xml version="1.0" standalone="no"?>
<!DOCTYPE svg PUBLIC "-//W3C//DTD SVG 20010904//EN"
 "http://www.w3.org/TR/2001/REC-SVG-20010904/DTD/svg10.dtd">
<svg version="1.0" xmlns="http://www.w3.org/2000/svg"
 width="854.000000pt" height="854.000000pt" viewBox="0 0 854.000000 854.000000"
 preserveAspectRatio="xMidYMid meet">
<metadata>
Created by potrace 1.14, written by Peter Selinger 2001-2017
</metadata>
<g transform="translate(0.000000,854.000000) scale(0.100000,-0.100000)"
fill="#000000" stroke="none">
<path d="M3585 7984 c-38 -13 -114 -28 -167 -33 -53 -6 -120 -20 -148 -31 -28
-11 -65 -20 -83 -20 -18 0 -37 -4 -43 -8 -5 -4 -27 -14 -49 -21 -22 -7 -49
-21 -60 -31 -11 -10 -43 -29 -70 -43 -28 -14 -73 -45 -100 -69 -28 -24 -74
-61 -103 -82 -48 -33 -61 -38 -125 -41 -114 -5 -185 -43 -278 -148 -39 -45
-44 -58 -48 -113 -1 -12 -23 -36 -61 -62 -69 -49 -148 -139 -178 -206 -12 -25
-31 -65 -42 -88 -11 -24 -51 -86 -90 -138 -87 -119 -145 -219 -160 -279 -6
-25 -16 -59 -22 -76 -6 -16 -10 -41 -9 -55 0 -14 -8 -59 -18 -100 -33 -127
-42 -220 -26 -255 7 -16 16 -53 20 -80 5 -42 10 -51 26 -51 21 0 24 8 34 88 3
26 10 50 15 53 5 3 7 -58 5 -143 -2 -82 1 -155 6 -163 6 -10 9 -3 9 23 0 20 4
40 10 43 6 4 10 -7 10 -26 0 -69 34 -266 51 -301 11 -21 19 -43 19 -50 0 -7 7
-26 16 -43 19 -36 53 -134 54 -155 0 -8 7 -28 16 -45 9 -16 19 -50 24 -75 11
-65 41 -173 50 -185 5 -6 18 -35 30 -65 12 -30 31 -65 42 -77 20 -22 19 -61
-2 -48 -16 10 -12 -1 20 -65 29 -58 37 -90 23 -90 -5 0 -25 5 -47 9 -25 6 -47
6 -62 -1 -21 -10 -29 -7 -55 18 -30 29 -31 29 -45 9 -13 -16 -15 -46 -12 -155
4 -131 5 -139 56 -295 80 -241 131 -330 231 -400 47 -32 65 -26 59 21 -2 20
-19 41 -59 74 -89 71 -139 135 -139 176 0 19 4 34 8 34 15 0 41 -34 53 -68 8
-24 19 -34 47 -42 21 -5 42 -10 48 -10 6 0 35 -10 63 -22 33 -13 55 -18 61
-12 6 6 11 55 12 110 3 89 6 103 28 131 14 18 28 32 32 32 4 1 10 -15 14 -34
3 -19 12 -39 19 -45 8 -7 19 -37 26 -68 6 -31 17 -68 24 -82 7 -14 23 -49 36
-77 12 -29 26 -53 31 -53 11 0 10 18 -2 25 -6 3 -10 14 -10 23 0 13 2 14 9 4
12 -20 23 95 11 118 -13 24 -13 39 1 20 7 -11 8 -3 2 25 -4 22 -6 54 -4 70 5
46 3 242 -3 315 -3 36 -8 128 -11 205 -4 77 -7 160 -8 185 -2 40 1 45 20 48
16 2 26 14 34 43 7 21 21 46 31 56 18 16 18 16 12 0 -7 -20 91 76 113 110 10
15 19 20 23 13 8 -14 60 4 60 21 0 8 -4 8 -15 -1 -9 -7 -18 -10 -22 -7 -8 9
37 45 65 53 12 4 22 14 22 24 0 10 7 25 15 33 8 8 12 17 9 20 -3 3 2 17 11 31
9 14 14 29 11 34 -3 6 3 12 14 15 11 3 20 13 20 22 0 10 8 24 17 30 17 12 17
14 -1 34 -25 28 -22 142 4 126 20 -12 19 16 -1 36 l-21 21 29 30 c26 29 27 31
6 25 -26 -6 -30 5 -8 23 14 11 14 14 0 24 -14 10 -14 15 -2 39 8 15 17 24 20
20 4 -3 8 1 8 10 2 29 4 32 24 54 27 29 72 46 93 34 16 -9 16 -10 0 -16 -10
-4 -18 -11 -18 -16 0 -6 9 -5 20 1 25 13 25 29 3 46 -15 10 -16 15 -5 25 10
11 12 10 12 -1 0 -10 4 -8 13 5 8 10 19 15 25 11 17 -10 15 -24 -5 -29 -13 -3
-12 -5 5 -6 13 0 38 10 55 22 44 33 115 57 157 53 19 -2 38 2 43 8 5 8 9 8 15
0 4 -7 15 -8 27 -4 17 6 100 -15 115 -30 11 -11 48 -32 93 -52 26 -11 47 -25
47 -29 0 -5 7 -9 15 -9 8 0 15 -7 15 -16 0 -8 4 -13 9 -9 5 3 12 1 16 -5 3 -5
15 -10 26 -10 12 0 19 -7 19 -20 0 -11 5 -20 10 -20 6 0 10 -6 10 -14 0 -9 7
-12 20 -9 14 4 20 0 20 -10 0 -17 34 -32 50 -22 5 3 14 -4 19 -17 10 -26 33
-47 72 -67 16 -8 29 -24 32 -41 6 -29 47 -50 47 -24 0 8 5 14 10 14 6 0 10 -7
10 -15 0 -9 9 -15 23 -15 18 0 19 2 7 10 -9 6 -10 10 -3 10 13 0 43 -27 43
-40 0 -4 8 -7 18 -6 11 1 16 -5 14 -18 -3 -15 1 -18 17 -13 12 3 21 1 21 -4 0
-5 9 -9 19 -9 26 0 36 -17 21 -35 -10 -13 -8 -15 14 -15 16 0 25 4 21 10 -3 6
-3 19 0 30 6 20 6 20 32 0 24 -18 28 -19 49 -5 13 8 31 12 41 9 13 -4 14 -3 5
3 -17 13 -4 46 15 38 12 -4 14 0 10 15 -4 16 0 20 21 20 34 0 57 14 48 29 -9
15 19 25 42 16 32 -14 60 -14 66 1 3 8 12 14 21 14 13 0 15 7 10 34 -8 42 11
58 25 22 5 -14 13 -26 17 -26 10 0 38 42 35 52 -4 15 26 59 33 48 5 -8 11 -7
23 2 13 11 15 10 9 -4 -5 -14 -1 -17 22 -15 21 2 27 6 23 20 -2 9 -8 17 -13
17 -5 0 -9 5 -9 10 0 6 6 10 13 10 8 0 22 9 32 20 10 11 28 20 41 20 13 0 26
5 29 10 3 6 22 10 41 10 19 0 34 5 34 11 0 6 -9 8 -21 4 -15 -5 -19 -4 -15 4
9 14 56 15 56 1 0 -18 22 -10 27 10 3 11 12 20 19 20 8 0 19 12 24 26 6 14 16
24 23 21 6 -2 23 0 37 6 14 6 43 11 65 11 22 1 40 6 40 11 1 16 49 95 58 95 4
0 10 -7 13 -15 4 -8 10 -12 15 -9 6 3 16 0 24 -6 12 -10 15 -10 15 2 0 8 -5
19 -12 26 -9 9 -9 15 0 24 9 9 12 8 12 -6 0 -9 4 -14 10 -11 6 3 10 -1 10 -9
0 -9 7 -16 15 -16 8 0 15 9 15 20 0 11 4 20 9 20 24 0 41 -14 41 -35 0 -18 4
-22 20 -18 16 4 21 -1 26 -26 6 -29 54 -81 74 -81 5 0 10 -10 12 -22 2 -13 9
-22 16 -20 24 5 50 -18 54 -48 3 -17 1 -33 -3 -35 -4 -3 6 -35 21 -72 16 -38
30 -90 32 -118 4 -56 14 -78 31 -69 7 3 2 -3 -10 -14 -13 -11 -23 -22 -23 -25
0 -10 54 3 61 15 10 16 18 -2 21 -52 2 -19 11 -42 20 -52 10 -10 21 -36 24
-59 5 -26 10 -36 15 -28 6 11 9 10 13 -1 11 -29 22 -191 14 -196 -14 -9 -9
-22 8 -20 20 3 35 28 32 53 -3 42 3 73 14 70 8 -1 15 20 19 65 4 37 12 82 18
100 15 47 48 194 56 251 3 27 13 67 22 90 19 55 31 361 14 371 -6 4 -11 18
-11 32 0 14 -5 35 -11 47 -7 11 -16 50 -20 86 -10 78 -43 207 -57 224 -25 30
-41 102 -32 147 17 85 13 116 -20 149 -17 16 -59 43 -94 60 -44 21 -66 37 -71
53 -3 13 -10 32 -14 43 -5 11 -14 43 -20 70 -14 60 -31 75 -86 75 -27 0 -48 7
-62 19 -11 10 -29 21 -39 23 -10 2 -28 19 -38 39 -20 37 -74 71 -131 84 -43 9
-75 32 -75 54 0 10 -9 26 -20 36 -11 10 -20 23 -20 30 0 16 -50 61 -77 69 -26
8 -103 90 -103 111 0 8 -9 20 -20 27 -11 7 -20 19 -20 25 0 11 -4 11 -20 1
-18 -11 -25 -8 -67 35 -51 51 -43 60 22 27 45 -23 57 -25 35 -7 -8 7 -26 25
-40 41 l-25 28 35 -6 c32 -6 34 -6 16 8 -11 9 -29 13 -46 10 -25 -5 -90 18
-90 32 0 3 10 15 23 26 l22 19 -38 -5 c-50 -7 -116 18 -205 75 -41 27 -88 51
-105 54 -105 19 -362 21 -350 3 2 -5 -5 -8 -16 -8 -12 0 -21 4 -21 9 0 5 -8
11 -17 15 -10 3 -25 11 -35 18 -13 10 -27 6 -76 -20 -67 -36 -81 -38 -125 -18
-79 33 -144 45 -262 44 -98 0 -133 -5 -190 -24z m830 -44 c3 -5 1 -10 -4 -10
-6 0 -11 5 -11 10 0 6 2 10 4 10 3 0 8 -4 11 -10z m-1905 -464 c0 -2 -8 -10
-17 -17 -16 -13 -17 -12 -4 4 13 16 21 21 21 13z m-50 -45 c0 -5 -8 -19 -19
-32 l-18 -23 -7 22 c-4 12 -4 26 -1 32 8 12 45 13 45 1z m-179 -205 c-7 -8
-20 -16 -31 -19 -17 -4 -18 -2 -10 14 13 23 44 41 48 28 2 -5 -1 -16 -7 -23z
m-323 -445 c-108 -146 -128 -167 -128 -141 0 13 62 126 83 150 7 8 21 20 32
26 25 14 33 -8 13 -35z m3442 -721 c0 -5 -5 -10 -11 -10 -5 0 -7 5 -4 10 3 6
8 10 11 10 2 0 4 -4 4 -10z m362 -142 c-7 -7 -12 -8 -12 -2 0 14 12 26 19 19
2 -3 -1 -11 -7 -17z m-932 -166 c0 -4 -6 -14 -12 -21 -10 -11 -10 -14 0 -18 6
-3 12 -10 12 -16 0 -6 -7 -4 -16 5 -10 10 -14 23 -9 37 6 20 25 30 25 13z
m-108 -102 c-9 -23 -9 -23 -14 -2 -4 12 -2 22 3 22 5 0 10 8 10 18 1 14 2 14
6 1 2 -8 0 -26 -5 -39z m-37 9 c11 -16 1 -19 -13 -3 -7 8 -8 14 -3 14 5 0 13
-5 16 -11z m-2565 -1252 c0 -12 -7 -40 -15 -62 -8 -22 -14 -68 -15 -102 0 -35
-4 -63 -8 -63 -18 0 -32 26 -32 60 0 35 31 168 44 189 11 17 26 3 26 -22z"/>
<path d="M5215 7810 c3 -5 16 -15 28 -21 22 -12 22 -12 3 10 -19 21 -43 30
-31 11z"/>
<path d="M5262 7750 c0 -14 2 -19 5 -12 2 6 2 18 0 25 -3 6 -5 1 -5 -13z"/>
<path d="M5210 7689 c6 -10 17 -19 25 -19 7 0 31 -20 53 -45 57 -65 61 -56 6
13 -26 31 -58 60 -70 64 -21 5 -23 4 -14 -13z"/>
<path d="M1772 5900 c0 -14 2 -19 5 -12 2 6 2 18 0 25 -3 6 -5 1 -5 -13z"/>
<path d="M4855 5720 c3 -5 8 -10 11 -10 2 0 4 5 4 10 0 6 -5 10 -11 10 -5 0
-7 -4 -4 -10z"/>
<path d="M4570 5550 c0 -5 7 -10 15 -10 8 0 15 5 15 10 0 6 -7 10 -15 10 -8 0
-15 -4 -15 -10z"/>
<path d="M4506 5461 c-7 -11 22 -23 35 -15 5 3 7 10 4 15 -8 12 -32 12 -39 0z"/>
<path d="M6025 5024 c-3 -22 -10 -55 -15 -74 -9 -32 -7 -60 7 -100 10 -29 33
76 29 138 -3 74 -12 89 -21 36z"/>
<path d="M5532 4975 c-18 -8 -46 -12 -61 -9 -22 5 -32 2 -39 -13 -8 -14 -31
-22 -86 -32 -42 -8 -79 -18 -82 -23 -3 -4 -10 -6 -15 -2 -6 3 -18 -4 -26 -16
-13 -18 -22 -21 -54 -17 -50 7 -79 -1 -79 -21 0 -13 -3 -13 -19 2 -12 11 -21
14 -26 7 -3 -6 -17 -11 -31 -11 -15 0 -24 -6 -24 -15 0 -8 -4 -15 -9 -15 -5 0
-11 7 -15 15 -8 22 -26 18 -26 -6 0 -12 -4 -17 -11 -14 -6 4 -7 19 -4 36 8 37
-10 39 -20 2 -7 -26 -8 -26 -15 -8 -4 11 -6 23 -3 28 2 4 -1 7 -7 7 -6 0 -8
-10 -4 -24 4 -16 1 -25 -10 -29 -9 -4 -16 -2 -16 4 0 6 -7 8 -16 5 -9 -4 -23
-1 -30 5 -11 9 -14 8 -14 -6 0 -11 -5 -15 -15 -11 -11 4 -15 -2 -16 -22 0 -26
-1 -26 -9 -4 -10 24 -22 27 -49 12 -13 -6 -24 -5 -37 5 -17 13 -20 11 -36 -23
-13 -30 -17 -33 -17 -14 -1 22 -11 28 -24 15 -4 -3 -2 -13 5 -20 9 -11 9 -17
-3 -24 -20 -13 -29 -11 -23 4 3 8 -2 14 -11 14 -10 0 -14 -6 -10 -15 4 -12 3
-13 -10 -2 -8 7 -15 19 -15 27 0 8 -4 11 -10 8 -5 -3 -25 -7 -45 -9 -31 -2
-35 0 -35 21 0 13 5 23 11 23 5 0 7 5 4 10 -14 22 -35 10 -35 -20 0 -28 -3
-30 -35 -30 -24 0 -35 -5 -35 -14 0 -8 -5 -18 -11 -22 -7 -4 -9 2 -7 16 4 29
-19 38 -25 10 -4 -18 -5 -18 -4 2 2 46 -36 67 -48 27 -6 -17 -14 -20 -48 -17
-32 2 -43 -1 -45 -13 -2 -10 -13 -16 -30 -16 -15 0 -37 -4 -49 -8 -16 -5 -23
-2 -27 13 -5 15 -17 19 -63 21 -31 1 -62 6 -69 12 -8 6 -26 6 -55 0 -60 -14
-79 -13 -79 3 0 19 -57 26 -71 9 -15 -17 -30 -17 -23 1 4 12 -1 13 -30 6 -28
-6 -38 -5 -45 8 -10 18 -72 18 -133 0 -28 -8 -42 -8 -49 -1 -8 8 -23 6 -53 -6
-68 -29 -93 -35 -200 -45 -53 -5 -78 -13 -104 -32 -18 -15 -44 -27 -58 -28
-16 -1 -24 -7 -24 -18 0 -10 -4 -18 -8 -18 -11 0 -33 -71 -25 -83 8 -13 -16
-27 -47 -27 -23 -1 -24 -2 -7 -14 13 -10 15 -19 9 -37 -11 -29 -5 -49 14 -49
16 0 19 -16 4 -25 -18 -11 -11 -108 10 -135 11 -14 20 -28 20 -32 0 -11 35
-44 59 -57 11 -6 35 -11 55 -11 19 0 38 -4 41 -10 3 -5 15 -10 26 -10 10 0 19
-4 19 -8 0 -5 14 -9 31 -10 33 -1 69 -26 69 -49 0 -7 7 -16 15 -19 18 -7 20
-65 3 -83 -11 -10 -10 -14 4 -22 15 -9 35 -63 29 -83 -1 -5 5 -4 13 3 12 10
17 9 26 -8 6 -12 10 -29 8 -39 -2 -10 6 -21 20 -27 12 -5 22 -18 22 -27 0 -10
5 -18 10 -18 6 0 10 -11 10 -24 l0 -25 143 3 c138 2 207 14 292 50 75 32 95
37 114 31 12 -3 21 -2 21 3 0 6 10 10 23 11 53 2 74 9 101 34 18 17 36 25 47
22 9 -3 20 -1 24 5 3 6 10 8 15 5 9 -6 80 61 125 116 22 26 75 123 101 182 9
20 23 37 30 37 8 0 17 7 20 15 4 9 19 15 36 15 48 0 67 32 67 118 0 45 6 84
15 103 15 30 12 84 -5 95 -5 3 -9 13 -9 22 0 13 2 13 15 -4 8 -10 15 -14 15
-9 0 6 9 -10 20 -34 11 -23 18 -47 15 -51 -10 -16 13 -20 25 -4 9 10 15 11 20
4 4 -6 16 -12 28 -13 12 0 24 -7 27 -14 4 -11 9 -11 28 2 13 8 26 12 29 9 4
-3 9 4 13 15 7 22 8 22 52 24 18 1 28 -5 34 -21 7 -17 1 -27 -34 -54 -76 -59
-106 -119 -106 -219 -1 -56 3 -72 29 -112 17 -26 30 -54 30 -62 0 -7 9 -17 20
-20 11 -3 20 -13 20 -21 0 -8 9 -14 20 -14 11 0 20 -4 20 -10 0 -5 6 -10 13
-10 6 0 31 -15 55 -34 23 -19 53 -37 67 -40 14 -4 25 -12 25 -20 0 -8 12 -13
30 -14 16 0 51 -10 77 -22 48 -21 138 -31 161 -16 6 4 12 16 12 27 0 16 4 19
22 14 17 -6 20 -4 15 9 -4 9 -2 16 3 16 5 0 5 13 -1 30 -6 16 -15 28 -19 25
-12 -7 13 58 25 68 6 4 3 12 -7 21 -27 20 -22 32 20 49 24 11 30 16 17 17 -37
1 -47 14 -34 42 8 18 17 24 30 21 11 -3 19 0 19 8 0 7 2 10 5 7 5 -5 65 48 65
57 0 7 51 55 58 55 18 0 51 90 45 121 -6 30 -5 31 29 28 24 -2 41 3 57 18 l23
22 -22 35 c-19 32 -47 56 -65 56 -3 0 6 -17 20 -37 14 -21 25 -41 25 -45 0
-18 -39 -6 -88 28 -45 30 -51 38 -41 51 8 9 24 13 41 11 56 -9 24 17 -54 43
-26 9 -35 16 -28 24 6 7 8 14 5 17 -3 3 33 20 79 38 47 18 87 38 89 44 3 8 11
7 27 -2 17 -11 21 -11 18 -1 -6 17 23 45 56 53 20 5 26 3 26 -9 0 -13 3 -13
23 -3 12 7 23 13 25 14 1 1 0 9 -4 18 -4 10 -16 16 -28 15 -27 -3 -56 10 -56
24 0 6 -7 19 -17 29 -15 17 -15 18 3 18 17 0 17 1 2 17 -10 9 -31 16 -48 16
-17 0 -30 6 -30 13 0 6 -12 14 -27 17 -16 3 -39 8 -53 11 -14 2 -40 -1 -58 -9z
m173 -115 c3 -5 1 -10 -4 -10 -6 0 -11 5 -11 10 0 6 2 10 4 10 3 0 8 -4 11
-10z m-40 -30 c3 -5 -1 -10 -10 -10 -9 0 -13 5 -10 10 3 6 8 10 10 10 2 0 7
-4 10 -10z m-1394 -57 c-12 -20 -14 -14 -5 12 4 9 9 14 11 11 3 -2 0 -13 -6
-23z m349 -94 c0 -6 -4 -7 -10 -4 -5 3 -10 11 -10 16 0 6 5 7 10 4 6 -3 10
-11 10 -16z m0 -51 c0 -25 -3 -29 -10 -18 -13 20 -13 50 0 50 6 0 10 -15 10
-32z m925 -150 c32 -14 31 -33 -3 -85 -36 -54 -89 -90 -141 -95 -45 -4 -48 -2
-26 28 21 32 45 105 45 143 l0 34 50 -7 c28 -4 62 -12 75 -18z"/>
<path d="M5770 4892 c0 -5 9 -17 19 -26 23 -21 38 -4 15 18 -17 17 -34 21 -34
8z"/>
<path d="M4620 4845 c0 -8 5 -15 10 -15 6 0 10 7 10 15 0 8 -4 15 -10 15 -5 0
-10 -7 -10 -15z"/>
<path d="M4733 4853 c-20 -7 -15 -23 7 -23 11 0 20 4 20 9 0 13 -12 19 -27 14z"/>
<path d="M6086 4811 c-24 -25 -28 -35 -22 -63 9 -45 87 -199 97 -192 25 15
-13 284 -40 284 -4 0 -20 -13 -35 -29z"/>
<path d="M4541 4804 c0 -11 3 -14 6 -6 3 7 2 16 -1 19 -3 4 -6 -2 -5 -13z"/>
<path d="M6001 4777 c0 -23 4 -64 9 -92 l7 -50 2 65 c1 36 4 75 7 86 4 14 0
23 -10 27 -13 5 -16 -1 -15 -36z"/>
<path d="M4360 4790 c0 -5 5 -10 11 -10 5 0 7 5 4 10 -3 6 -8 10 -11 10 -2 0
-4 -4 -4 -10z"/>
<path d="M2939 4671 c-13 -11 -19 -20 -14 -20 14 0 50 28 43 34 -3 3 -16 -3
-29 -14z"/>
<path d="M2915 4620 c-3 -5 -1 -10 4 -10 6 0 11 5 11 10 0 6 -2 10 -4 10 -3 0
-8 -4 -11 -10z"/>
<path d="M6017 4550 c-4 -16 -4 -72 -1 -122 4 -88 14 -380 15 -440 0 -16 4
-28 9 -28 8 0 15 11 68 113 26 51 52 193 43 237 -4 18 -8 7 -17 -40 -14 -80
-26 -109 -53 -135 -36 -32 -42 -2 -16 74 15 45 25 102 29 178 7 119 -1 158
-36 168 -10 4 -18 11 -18 16 0 22 -18 6 -23 -21z"/>
<path d="M2458 3970 c-21 -32 -24 -44 -18 -81 11 -68 35 -106 70 -111 46 -7
54 3 47 64 -6 59 -42 154 -62 162 -7 2 -24 -13 -37 -34z"/>
<path d="M6017 3943 c-4 -3 -7 -11 -7 -17 0 -6 5 -5 12 2 6 6 9 14 7 17 -3 3
-9 2 -12 -2z"/>
<path d="M2421 3743 c-12 -8 -21 -22 -21 -32 0 -17 2 -18 35 -2 19 9 36 21 39
28 7 18 -30 22 -53 6z"/>
<path d="M3207 3646 c-6 -14 0 -26 14 -26 3 0 9 9 12 20 6 23 -18 28 -26 6z"/>
<path d="M3235 3600 c3 -5 8 -10 11 -10 2 0 4 5 4 10 0 6 -5 10 -11 10 -5 0
-7 -4 -4 -10z"/>
<path d="M2602 3548 c-24 -29 -89 -42 -153 -32 -60 10 -60 10 -37 -8 40 -31
120 -51 172 -44 54 8 65 25 45 68 -12 25 -17 28 -27 16z"/>
<path d="M3190 3518 c0 -29 2 -31 15 -17 9 9 13 23 9 32 -10 28 -24 19 -24
-15z"/>
<path d="M3328 3543 c7 -3 16 -2 19 1 4 3 -2 6 -13 5 -11 0 -14 -3 -6 -6z"/>
<path d="M5040 3539 c0 -5 -5 -7 -11 -3 -7 4 -10 3 -7 -2 2 -5 10 -22 17 -39
7 -16 18 -40 24 -52 15 -32 2 -128 -25 -181 -14 -28 -36 -54 -56 -66 -39 -22
-50 -16 -28 16 28 39 21 58 -21 58 -30 0 -44 -8 -80 -45 -39 -41 -57 -85 -35
-85 5 0 19 -9 32 -20 13 -11 26 -17 29 -13 13 18 41 10 42 -11 0 -11 3 -15 6
-8 8 19 23 14 23 -8 0 -13 -7 -20 -20 -20 -11 0 -20 -4 -20 -10 0 -18 29 -10
45 13 12 17 17 19 24 8 6 -9 11 -10 15 -2 4 6 5 15 2 20 -3 5 1 14 9 21 13 11
18 10 29 -5 12 -16 13 -15 9 12 -3 19 1 34 11 42 14 12 16 10 16 -9 0 -28 22
-21 31 11 7 24 7 24 8 -3 1 -16 5 -28 10 -28 5 0 7 10 3 22 -4 16 -2 19 8 13
8 -5 11 -4 7 2 -4 6 0 19 8 29 13 17 14 18 15 2 0 -25 20 -23 20 2 0 13 5 18
16 13 8 -3 13 -12 10 -19 -8 -22 14 -27 35 -8 13 11 16 21 9 29 -5 6 -10 27
-11 46 -2 19 -7 40 -13 48 -6 8 -11 17 -11 20 0 3 -3 5 -7 4 -4 -2 -5 4 -2 12
4 9 0 15 -10 15 -11 0 -16 9 -16 31 0 18 -7 37 -15 43 -8 6 -16 25 -18 41 -3
20 -9 30 -20 29 -9 -1 -28 9 -42 22 -28 26 -45 31 -45 13z m80 -223 c0 -5 -7
-3 -15 4 -8 7 -12 17 -9 22 7 10 24 -9 24 -26z m20 -26 c0 -5 -4 -10 -10 -10
-5 0 -10 5 -10 10 0 6 5 10 10 10 6 0 10 -4 10 -10z m-33 -32 c-3 -8 -6 -5 -6
6 -1 11 2 17 5 13 3 -3 4 -12 1 -19z m20 -50 c-3 -8 -6 -5 -6 6 -1 11 2 17 5
13 3 -3 4 -12 1 -19z"/>
<path d="M4004 3516 c1 -13 -6 -22 -19 -24 -11 -2 -24 -9 -30 -16 -5 -6 -26
-20 -45 -29 -51 -25 -78 -50 -82 -78 -2 -17 -10 -24 -26 -25 -34 -2 -45 -18
-48 -71 -2 -33 2 -50 13 -58 17 -13 11 -51 -6 -41 -5 4 -19 -7 -30 -22 -15
-21 -17 -32 -9 -40 8 -8 7 -13 -6 -18 -11 -4 -15 -13 -11 -25 6 -17 -18 -77
-35 -89 -4 -3 -28 -41 -53 -84 -33 -57 -55 -83 -77 -92 -26 -11 -30 -11 -30 3
0 26 -109 11 -133 -19 l-19 -23 6 25 c5 24 -9 79 -27 108 -5 6 -19 12 -33 12
-19 0 -24 5 -24 25 0 14 5 25 10 25 15 0 12 16 -6 35 -13 12 -13 19 -4 30 7 8
10 20 7 27 -4 8 -6 7 -6 -4 -1 -10 -5 -18 -10 -18 -6 0 -9 12 -8 27 2 23 -3
29 -23 31 -13 2 -29 11 -36 20 -10 14 -12 13 -19 -8 l-8 -25 -8 24 c-6 14 -15
21 -23 18 -8 -3 -21 5 -30 19 -9 13 -23 24 -30 24 -17 0 -28 24 -20 44 3 8 1
17 -5 21 -6 3 -11 1 -11 -4 0 -6 -5 -11 -11 -11 -5 0 -7 5 -4 10 4 7 -3 8 -20
4 -24 -6 -26 -4 -21 13 4 14 1 23 -8 26 -25 10 -48 -34 -36 -68 4 -11 3 -26
-2 -32 -16 -20 -2 -42 23 -36 16 4 20 2 17 -8 -3 -8 -1 -24 3 -37 5 -14 5 -30
0 -40 -6 -10 -4 -20 5 -30 19 -19 18 -53 -1 -46 -10 4 -15 0 -15 -12 0 -17 -1
-17 -13 1 -13 17 -14 17 -20 -4 -6 -26 1 -51 14 -51 5 0 9 -4 9 -10 0 -5 -9
-10 -21 -10 -17 0 -20 -4 -15 -24 4 -17 1 -28 -10 -34 -15 -8 -14 -10 2 -16
15 -6 16 -9 5 -16 -12 -7 -12 -14 -2 -38 22 -54 -18 -89 -71 -61 -19 10 -20 9
-13 -23 4 -18 16 -55 26 -83 33 -88 23 -90 -39 -10 -18 23 -85 150 -97 186 -8
20 -23 122 -35 226 -12 103 -25 192 -30 196 -12 13 -54 -13 -109 -66 -48 -47
-106 -147 -130 -228 -17 -54 -30 -174 -31 -267 0 -46 -5 -92 -10 -102 -6 -11
-47 -38 -93 -61 -82 -41 -140 -80 -259 -173 -91 -70 -130 -90 -253 -131 -64
-21 -125 -48 -147 -66 -22 -17 -58 -33 -90 -39 -138 -27 -167 -34 -218 -57
-67 -31 -348 -128 -445 -154 -38 -11 -83 -25 -100 -33 -16 -7 -68 -28 -115
-46 -93 -36 -298 -122 -345 -146 -16 -8 -51 -22 -76 -32 -25 -9 -91 -35 -147
-57 l-102 -40 0 -742 0 -743 3550 0 c1953 0 3550 2 3550 4 0 16 -32 86 -73
159 -27 49 -67 129 -88 178 -21 49 -57 113 -78 142 -72 95 -220 207 -358 272
-43 20 -175 85 -293 143 -119 59 -285 136 -370 172 -85 36 -168 74 -185 85
-35 25 -36 36 -5 150 38 147 27 408 -25 575 -13 41 -26 88 -30 104 -8 40 -91
210 -108 225 -11 9 -37 -20 -133 -150 -142 -192 -229 -301 -279 -349 -20 -19
-48 -47 -63 -61 -15 -15 -48 -38 -74 -53 -25 -15 -53 -37 -61 -49 -37 -57
-230 -178 -320 -201 -88 -23 -139 7 -135 77 2 47 14 54 98 61 36 3 92 8 125
11 66 6 123 20 172 41 52 23 56 93 6 94 -8 0 -13 14 -13 34 0 19 -7 42 -16 50
-9 9 -11 16 -4 16 6 0 8 5 5 10 -4 6 -11 8 -16 5 -5 -4 -9 1 -9 10 0 12 6 15
20 10 17 -5 20 -2 18 19 -1 14 -8 26 -15 26 -7 0 -13 7 -13 15 0 8 -5 15 -11
15 -6 0 -8 -7 -5 -16 10 -25 -4 -63 -22 -61 -14 1 -16 9 -14 38 4 37 -20 89
-40 89 -5 0 -6 -5 -3 -11 4 -6 -2 -5 -13 2 -18 11 -20 20 -15 59 6 46 21 95
22 72 1 -22 21 -3 21 20 0 17 3 18 15 8 12 -10 16 -9 21 4 3 9 10 13 15 10 5
-3 9 -1 9 4 0 16 41 22 47 6 3 -8 11 -14 19 -14 8 0 14 -9 14 -20 0 -11 5 -20
10 -20 6 0 10 6 9 13 -1 17 -17 54 -18 42 -1 -5 -7 1 -14 15 -9 17 -10 27 -3
32 7 5 4 8 -6 8 -10 0 -18 -5 -18 -11 0 -20 -19 2 -25 29 -5 24 -10 28 -36 26
l-31 -2 29 31 c33 35 63 103 63 143 0 28 23 57 35 46 5 -4 5 -1 1 6 -9 15 12
44 26 36 5 -3 9 2 8 12 -4 31 -1 44 9 44 14 0 61 45 61 59 0 18 18 13 22 -6 3
-15 6 -14 17 7 10 17 11 25 2 28 -6 2 -11 10 -11 18 0 9 -4 12 -10 9 -6 -3
-10 4 -10 17 0 18 -2 20 -10 8 -15 -25 -23 -3 -11 33 7 20 18 38 26 41 39 15
-5 66 -56 66 -10 0 -21 5 -24 10 -3 6 -16 10 -28 11 -12 0 -16 3 -9 6 21 8 13
21 -18 28 -35 8 -39 21 -10 30 24 7 26 30 5 39 -9 3 -15 0 -15 -9 0 -8 -4 -15
-10 -15 -5 0 -10 9 -10 20 0 11 5 20 10 20 18 0 10 18 -10 23 -12 3 -20 14
-20 26 0 23 -36 65 -49 57 -8 -5 -41 29 -41 43 0 5 -23 13 -52 18 -28 4 -53
13 -55 20 -3 7 15 22 39 34 48 24 127 101 109 107 -6 2 -11 8 -11 13 0 5 -16
26 -36 45 -27 28 -40 34 -57 29 -54 -16 -142 -17 -171 -1 -16 8 -33 13 -37 10
-5 -3 -59 -7 -121 -10 -62 -3 -114 -10 -116 -15 -2 -5 -18 -9 -36 -9 -50 0
-88 52 -105 142 -7 39 -5 48 11 63 23 19 19 38 -8 40 -14 1 -20 -5 -20 -19z
m-1024 -266 c0 -5 -5 -10 -11 -10 -5 0 -7 5 -4 10 3 6 8 10 11 10 2 0 4 -4 4
-10z m27 -82 c-3 -7 -5 -2 -5 12 0 14 2 19 5 13 2 -7 2 -19 0 -25z m1038 -18
c28 0 56 -25 79 -67 8 -15 30 -42 50 -60 20 -17 36 -39 36 -48 0 -11 5 -15 14
-12 7 3 23 -1 35 -9 12 -8 25 -12 31 -9 5 3 21 -5 35 -19 14 -15 30 -26 34
-26 5 0 13 -12 19 -27 13 -39 57 -83 82 -83 11 0 20 -4 20 -10 0 -5 11 -10 24
-10 14 0 28 -4 31 -10 3 -5 19 -10 35 -10 32 0 48 -16 31 -33 -19 -19 -201 1
-201 23 0 4 -24 12 -53 18 -63 13 -143 4 -302 -33 -126 -28 -151 -30 -170 -12
-13 13 -14 71 -1 84 12 12 6 22 -9 17 -11 -5 -15 1 -15 20 0 20 -5 26 -21 26
-12 0 -17 4 -14 11 4 6 -2 13 -14 16 -12 3 -21 10 -20 17 3 23 -1 36 -11 36
-5 0 -11 -10 -11 -22 -1 -17 -2 -19 -6 -6 -2 10 5 30 16 44 12 15 21 32 21 38
0 7 22 37 50 67 27 29 50 57 50 61 0 10 61 41 67 34 3 -3 15 1 26 9 19 13 22
13 30 0 4 -8 19 -15 32 -15z m-1008 -130 c1 -47 -4 -50 -17 -14 -7 19 -7 31 1
40 6 8 12 14 13 14 0 0 2 -18 3 -40z m-40 -117 c-3 -10 -5 -4 -5 12 0 17 2 24
5 18 2 -7 2 -21 0 -30z m1792 -133 c-10 -28 -29 -42 -29 -21 0 5 -3 18 -7 28
-6 16 -5 16 10 4 15 -12 17 -11 17 3 0 9 4 16 9 16 6 0 6 -12 0 -30z m-1387
-22 c-6 -6 -19 -7 -29 -3 -17 7 -17 8 2 15 24 9 41 2 27 -12z m15 -62 c-2 -6
-13 -12 -25 -14 -24 -4 -25 -2 -16 21 6 17 47 11 41 -7z m1494 -53 c-12 -20
-14 -14 -5 12 4 9 9 14 11 11 3 -2 0 -13 -6 -23z m-653 -185 c-7 -20 -39 -18
-62 4 l-21 21 22 -6 c14 -3 24 1 27 10 5 12 8 12 22 -1 8 -9 14 -21 12 -28z
m-261 -419 c4 -14 15 -19 42 -19 67 0 161 -7 166 -12 9 -9 -6 -38 -20 -38 -18
0 -38 -54 -31 -82 3 -13 3 -17 0 -9 -5 11 -8 11 -15 0 -7 -11 -9 -10 -9 3 0
10 -10 20 -25 24 -16 4 -25 13 -25 25 0 10 -5 19 -11 19 -7 0 -8 -7 -4 -17 4
-10 9 -24 13 -32 3 -9 0 -12 -9 -9 -8 2 -15 14 -17 26 -2 11 -10 26 -18 32
-18 16 -18 6 1 -31 18 -34 13 -49 -16 -49 -16 0 -18 3 -10 19 7 13 6 23 -3 36
-12 17 -13 17 -19 -4 -6 -25 -37 -28 -38 -3 -1 9 -2 22 -4 27 -1 6 -3 16 -3
24 -2 9 -13 12 -38 9 -35 -4 -36 -4 -30 26 7 34 31 57 51 50 7 -3 16 -1 19 4
9 15 48 1 53 -19z m-155 -21 c-7 -7 -12 -8 -12 -2 0 14 12 26 19 19 2 -3 -1
-11 -7 -17z m358 -73 c0 -8 -4 -15 -10 -15 -5 0 -10 7 -10 15 0 8 5 15 10 15
6 0 10 -7 10 -15z m-215 -84 c3 -5 1 -12 -5 -16 -5 -3 -10 1 -10 9 0 18 6 21
15 7z m715 -15 c0 -8 -7 -16 -15 -20 -15 -5 -21 14 -8 27 11 12 23 8 23 -7z
m100 -212 c0 -8 -4 -12 -10 -9 -5 3 -10 10 -10 16 0 5 5 9 10 9 6 0 10 -7 10
-16z"/>
<path d="M3920 2929 c0 -5 5 -7 10 -4 6 3 10 8 10 11 0 2 -4 4 -10 4 -5 0 -10
-5 -10 -11z"/>
<path d="M3960 1985 c-14 -16 -3 -20 19 -6 8 5 9 11 3 15 -5 3 -15 -1 -22 -9z"/>
<path d="M3081 3427 c-15 -19 -2 -29 15 -12 8 7 14 16 14 19 0 11 -17 6 -29
-7z"/>
<path d="M3075 3380 c-4 -6 5 -10 19 -10 14 0 26 5 26 10 0 6 -9 10 -19 10
-11 0 -23 -4 -26 -10z"/>
<path d="M2930 3323 c1 -27 1 -27 15 -9 14 19 12 36 -6 36 -5 0 -9 -12 -9 -27z"/>
<path d="M2993 3323 c11 -3 16 -11 13 -19 -6 -14 20 -32 30 -21 11 11 -22 47
-41 46 -18 -1 -18 -2 -2 -6z"/>
<path d="M3120 3309 c0 -5 5 -7 10 -4 6 3 10 8 10 11 0 2 -4 4 -10 4 -5 0 -10
-5 -10 -11z"/>
<path d="M3120 3216 c0 -9 5 -16 10 -16 6 0 10 4 10 9 0 6 -4 13 -10 16 -5 3
-10 -1 -10 -9z"/>
<path d="M2896 3201 c-4 -7 -5 -15 -2 -18 9 -9 19 4 14 18 -4 11 -6 11 -12 0z"/>
<path d="M3082 3190 c6 -19 38 -26 38 -9 0 7 -3 9 -7 6 -3 -4 -13 -1 -21 6
-13 10 -14 9 -10 -3z"/>
<path d="M3270 3110 c0 -5 5 -10 11 -10 5 0 7 5 4 10 -3 6 -8 10 -11 10 -2 0
-4 -4 -4 -10z"/>
<path d="M2940 3061 c0 -22 4 -42 9 -46 5 -3 9 14 8 40 -2 55 -17 60 -17 6z"/>
<path d="M5025 3031 c-3 -5 -1 -12 5 -16 5 -3 10 1 10 9 0 18 -6 21 -15 7z"/>
<path d="M5010 2989 c0 -5 5 -7 10 -4 6 3 10 8 10 11 0 2 -4 4 -10 4 -5 0 -10
-5 -10 -11z"/>
<path d="M2890 2851 c0 -6 5 -13 10 -16 6 -3 10 1 10 9 0 9 -4 16 -10 16 -5 0
-10 -4 -10 -9z"/>
<path d="M5210 2673 c-17 -7 -96 -59 -122 -82 -20 -17 -24 -46 -8 -56 5 -3 30
3 54 15 25 11 49 20 53 19 35 -6 51 4 68 40 26 59 8 84 -45 64z"/>
<path d="M4795 2149 c-4 -6 -5 -12 -2 -15 2 -3 7 2 10 11 7 17 1 20 -8 4z"/>
<path d="M4860 1972 c0 -7 7 -20 15 -28 19 -20 20 -4 0 22 -9 12 -14 14 -15 6z"/>
<path d="M4860 1800 c0 -5 5 -10 10 -10 6 0 10 5 10 10 0 6 -4 10 -10 10 -5 0
-10 -4 -10 -10z"/>
<path d="M4880 1766 c0 -9 5 -16 10 -16 6 0 10 4 10 9 0 6 -4 13 -10 16 -5 3
-10 -1 -10 -9z"/>
<path d="M4834 1756 c-4 -10 1 -25 11 -36 16 -18 17 -20 2 -20 -10 0 -17 -8
-17 -20 0 -26 53 -85 68 -76 16 10 15 26 -2 26 -11 0 -13 10 -9 42 4 27 3 39
-4 35 -9 -6 -20 14 -27 45 -3 17 -16 19 -22 4z"/>
</g>
</svg>
