<?xml version="1.0" standalone="no"?>
<!DOCTYPE svg PUBLIC "-//W3C//DTD SVG 20010904//EN"
 "http://www.w3.org/TR/2001/REC-SVG-20010904/DTD/svg10.dtd">
<svg version="1.0" xmlns="http://www.w3.org/2000/svg"
 width="1000.000000pt" height="1000.000000pt" viewBox="0 0 1000.000000 1000.000000"
 preserveAspectRatio="xMidYMid meet">
<metadata>
Created by potrace 1.14, written by Peter Selinger 2001-2017
</metadata>
<g transform="translate(0.000000,1000.000000) scale(0.100000,-0.100000)"
fill="#000000" stroke="none">
<path d="M4709 8946 c-2 -2 -51 -6 -109 -10 -159 -9 -231 -16 -395 -37 -216
-29 -253 -35 -430 -70 -55 -11 -111 -23 -125 -25 -56 -11 -311 -76 -390 -100
-273 -81 -554 -187 -801 -302 -46 -22 -87 -39 -90 -38 -3 1 -12 -4 -20 -11 -8
-6 -57 -33 -109 -61 -1013 -529 -1756 -1344 -2067 -2267 -45 -132 -79 -252
-88 -304 -3 -19 -8 -37 -10 -40 -3 -6 -39 -201 -49 -271 -27 -182 -28 -666 -2
-807 2 -10 7 -43 11 -73 4 -30 16 -98 27 -150 11 -52 22 -108 25 -124 2 -16 9
-41 15 -55 5 -14 12 -37 14 -51 9 -49 89 -286 121 -360 8 -19 19 -44 23 -55
16 -39 150 -310 172 -350 36 -64 119 -196 157 -250 19 -27 44 -64 55 -80 246
-358 701 -796 1103 -1060 l61 -41 -37 -54 c-20 -30 -88 -131 -151 -225 -63
-93 -117 -172 -120 -175 -3 -3 -52 -75 -110 -160 -96 -143 -184 -273 -211
-310 -6 -9 -23 -34 -37 -57 -15 -22 -59 -87 -98 -144 -125 -182 -136 -200
-132 -204 3 -3 13 3 24 13 10 10 91 73 178 141 87 68 164 127 170 132 6 5 50
39 97 77 101 78 71 55 459 358 168 130 307 241 308 246 2 4 10 8 18 8 8 0 14
4 14 9 0 5 22 23 49 40 l49 32 104 -52 c175 -88 409 -185 643 -265 150 -52
496 -150 507 -144 2 1 16 -3 31 -9 15 -6 42 -13 60 -16 18 -4 52 -11 77 -16
66 -15 72 -17 225 -43 77 -14 178 -30 225 -36 47 -6 99 -12 115 -15 28 -4 127
-14 205 -20 275 -24 949 -24 1065 0 11 2 49 7 85 9 36 3 84 7 105 10 22 3 60
8 85 11 25 3 59 7 75 10 17 2 44 7 60 9 419 58 1051 233 1385 383 25 12 79 35
120 53 77 33 336 161 403 199 20 11 54 31 75 42 91 52 127 73 132 80 3 3 16
12 30 19 50 26 234 152 343 234 305 229 507 422 779 741 64 75 288 395 312
445 3 8 25 47 47 85 59 104 162 317 203 423 100 257 182 580 203 802 2 30 8
84 13 120 7 65 5 508 -4 565 -3 17 -7 55 -11 85 -10 88 -28 192 -49 285 -2 11
-9 43 -15 70 -30 132 -103 352 -173 515 -57 134 -187 387 -223 434 -14 18 -25
36 -25 40 0 25 -229 339 -350 480 -234 273 -572 573 -875 776 -222 148 -421
264 -640 370 -224 108 -256 122 -525 225 -138 53 -531 172 -621 188 -13 3 -43
10 -65 16 -23 6 -64 16 -90 21 -27 6 -58 12 -69 15 -16 3 -149 27 -285 51 -22
3 -59 9 -140 20 -14 2 -52 6 -85 9 -33 3 -69 7 -80 10 -11 2 -60 7 -110 10
-49 4 -106 9 -125 12 -41 5 -716 13 -721 9z"/>
</g>
</svg>
